<svg width="284" height="99" viewBox="0 0 284 99" fill="none" xmlns="http://www.w3.org/2000/svg">
<path d="M59.332 99V56.1492H105.43L110.376 62.495L115.485 56.1492H282.81V96.0448C282.81 96.0448 278.434 98.9571 273.373 99H180.722L175.146 92.2452V99H156.873V87.4693C156.873 87.4693 154.377 89.0789 148.98 89.0789H142.761V99H115.094L110.155 92.5181L105.141 99H59.332Z" fill="white"/>
<path d="M6 25L15.8953 0H33.8729L39.7723 13.3614V0H62.1201L65.632 9.65721L69.0367 0H169.355V4.85501C169.355 4.85501 174.629 0 183.296 0L215.845 0.111958L221.643 13.2985V0H240.345L245.492 7.57459V0H264.365V42.8507H245.492L240.559 35.2516V42.8507H213.082L210.319 36.0959H202.932L200.214 42.8507H181.58C174.122 42.8507 169.355 38.0949 169.355 38.0949V42.8507H141.259L135.683 36.0959V42.8507H31.2096L28.4483 36.0959H21.0851L18.3433 42.8507H0L6 25Z" fill="white"/>
<path d="M19.5742 5.28258L5.55321 37.3679H14.6816L17.2686 30.9429H32.3083L34.882 37.3679H44.2114L30.2039 5.28258H19.5742ZM24.7617 12.7498L29.346 23.977H20.164L24.7617 12.7498V12.7498Z" fill="#016FD0"/>
<path d="M45.1769 37.3625V5.27716L58.1489 5.32459L65.6938 26.0112L73.058 5.27716H85.9262V37.3625H77.7764V13.7207L69.1373 37.3625H61.9899L53.3268 13.7207V37.3625H45.1769Z" fill="#016FD0"/>
<path d="M91.5024 37.3625V5.27716H118.097V12.4542H99.7381V17.9424H117.668V24.6972H99.7381V30.3966H118.097V37.3625H91.5024Z" fill="#016FD0"/>
<path d="M122.815 5.28258V37.3679H130.965V25.9691H134.396L144.168 37.3679H154.128L143.404 25.547C147.805 25.1815 152.345 21.4638 152.345 15.6919C152.345 8.93998 146.961 5.28258 140.951 5.28258H122.815V5.28258ZM130.965 12.4595H140.281C142.516 12.4595 144.141 14.1801 144.141 15.837C144.141 17.9686 142.035 19.2144 140.402 19.2144H130.965V12.4595V12.4595Z" fill="#016FD0"/>
<path d="M163.993 37.3625H155.672V5.27716H163.993V37.3625Z" fill="#016FD0"/>
<path d="M183.725 37.3625H181.928C173.238 37.3625 167.961 30.6235 167.961 21.4517C167.961 12.0534 173.178 5.27716 184.153 5.27716H193.161V12.8763H183.824C179.369 12.8763 176.218 16.2983 176.218 21.5309C176.218 27.7446 179.821 30.3544 185.011 30.3544H187.156L183.725 37.3625Z" fill="#016FD0"/>
<path d="M201.459 5.28258L187.438 37.3679H196.566L199.153 30.9429H214.193L216.766 37.3679H226.096L212.088 5.28258H201.459ZM206.646 12.7498L211.23 23.977H202.048L206.646 12.7498Z" fill="#016FD0"/>
<path d="M227.047 37.3625V5.27716H237.409L250.639 25.436V5.27716H258.789V37.3625H248.763L235.197 16.6759V37.3625H227.047Z" fill="#016FD0"/>
<path d="M64.9082 93.5117V61.4264H91.5025V68.6034H73.1439V74.0917H91.0735V80.8465H73.1439V86.5459H91.5025V93.5117H64.9082Z" fill="#016FD0"/>
<path d="M195.22 93.5117V61.4264H221.814V68.6034H203.456V74.0917H221.3V80.8465H203.456V86.5459H221.814V93.5117H195.22Z" fill="#016FD0"/>
<path d="M92.5346 93.5117L105.483 77.667L92.2263 61.4264H102.494L110.389 71.4663L118.311 61.4264H128.177L115.094 77.4691L128.067 93.5117H117.801L110.135 83.6302L102.655 93.5117H92.5346Z" fill="#016FD0"/>
<path d="M129.035 61.4319V93.5172H137.399V83.385H145.978C153.237 83.385 158.739 79.5947 158.739 72.2237C158.739 66.1176 154.423 61.4319 147.037 61.4319H129.035V61.4319ZM137.399 68.688H146.434C148.779 68.688 150.455 70.1026 150.455 72.382C150.455 74.5234 148.787 76.076 146.407 76.076H137.399V68.688Z" fill="#016FD0"/>
<path d="M162.278 61.4264V93.5117H170.427V82.113H173.859L183.631 93.5117H193.59L182.867 81.6909C187.268 81.3253 191.807 77.6076 191.807 71.8357C191.807 65.0838 186.423 61.4264 180.414 61.4264H162.278V61.4264ZM170.427 68.6034H179.743C181.978 68.6034 183.604 70.324 183.604 71.9808C183.604 74.1124 181.498 75.3582 179.864 75.3582H170.427V68.6034V68.6034Z" fill="#016FD0"/>
<path d="M225.589 93.5117V86.5459H241.9C244.313 86.5459 245.358 85.2623 245.358 83.8545C245.358 82.5057 244.316 81.142 241.9 81.142H234.529C228.122 81.142 224.554 77.3002 224.554 71.5323C224.554 66.3877 227.822 61.4264 237.342 61.4264H253.213L249.781 68.6456H236.055C233.431 68.6456 232.624 70.0007 232.624 71.2948C232.624 72.6249 233.622 74.0917 235.626 74.0917H243.347C250.489 74.0917 253.588 78.0789 253.588 83.3004C253.588 88.914 250.135 93.5117 242.958 93.5117H225.589Z" fill="#016FD0"/>
<path d="M255.501 93.5117V86.5459H271.811C274.225 86.5459 275.27 85.2623 275.27 83.8545C275.27 82.5057 274.228 81.142 271.811 81.142H264.441C258.034 81.142 254.466 77.3002 254.466 71.5323C254.466 66.3877 257.734 61.4264 267.254 61.4264H283.125L279.693 68.6456H265.967C263.343 68.6456 262.536 70.0007 262.536 71.2948C262.536 72.6249 263.534 74.0917 265.538 74.0917H273.259C280.401 74.0917 283.5 78.0789 283.5 83.3004C283.5 88.914 280.047 93.5117 272.87 93.5117H255.501Z" fill="#016FD0"/>
</svg>
