<svg width="169" height="100" viewBox="0 0 169 100" fill="none" xmlns="http://www.w3.org/2000/svg">
<path d="M107.348 10.6944H61.6524V89.3055H107.348V10.6944Z" fill="#FF5F00"/>
<path d="M64.5536 50C64.5536 34.0278 72.3871 19.8611 84.4275 10.6944C75.5785 4.02776 64.4086 -1.52588e-05 52.2232 -1.52588e-05C23.3554 -1.52588e-05 0 22.3611 0 50C0 77.6389 23.3554 100 52.2232 100C64.4086 100 75.5785 95.9722 84.4275 89.3055C72.3871 80.2778 64.5536 65.9722 64.5536 50Z" fill="#EB001B"/>
<path d="M169 50C169 77.6389 145.645 100 116.777 100C104.591 100 93.4215 95.9722 84.5725 89.3055C96.7579 80.1389 104.446 65.9722 104.446 50C104.446 34.0278 96.6129 19.8611 84.5725 10.6944C93.4215 4.02776 104.591 -1.52588e-05 116.777 -1.52588e-05C145.645 -1.52588e-05 169 22.5 169 50Z" fill="#F79E1B"/>
</svg>
