<svg width="295" height="88" viewBox="0 0 295 88" fill="none" xmlns="http://www.w3.org/2000/svg">
<path fill-rule="evenodd" clip-rule="evenodd" d="M152.567 28.1332C152.398 40.3913 164.393 47.232 173.428 51.2992C182.712 55.4726 185.83 58.1487 185.795 61.88C185.724 67.5918 178.389 70.1118 171.524 70.2099C159.547 70.3816 152.584 67.2232 147.048 64.834L142.734 83.4825C148.288 85.8479 158.573 87.9101 169.239 88C194.272 88 210.651 76.5846 210.74 58.8851C210.837 36.4229 177.105 35.1789 177.335 25.1383C177.414 22.0944 180.559 18.8454 187.451 18.019C190.861 17.602 200.278 17.2825 210.952 21.8239L215.142 3.78107C209.402 1.84966 202.023 0 192.837 0C169.274 0 152.7 11.5707 152.567 28.1332ZM255.404 1.55467C250.833 1.55467 246.979 4.01815 245.261 7.79853L209.499 86.6743H234.515L239.494 73.9658H270.064L272.952 86.6743H295L275.759 1.55467H255.404ZM258.902 24.549L266.122 56.5116H246.35L258.902 24.549ZM122.236 1.55467L102.518 86.6743H126.355L146.065 1.55467H122.236ZM86.9712 1.55467L62.1587 59.4901L52.1221 10.2286C50.9443 4.73008 46.2936 1.55467 41.1289 1.55467H0.567135L0 4.02632C8.32711 5.69544 17.7878 8.38784 23.5189 11.2683C27.0264 13.0273 28.028 14.5656 29.1792 18.7473L48.189 86.6743H73.3827L112.005 1.55467H86.9712Z" fill="#1A1F71"/>
</svg>
