<svg width="458" height="263" viewBox="0 0 458 263" fill="none" xmlns="http://www.w3.org/2000/svg">
<path d="M339.137 260.772C340.597 260.787 342.056 260.687 343.495 260.475C341.84 259.438 338.349 257.288 335.509 255.777C331.632 253.728 329.431 250.258 334.9 249.67C339.555 249.168 343.215 257.802 344.204 260.37C344.839 260.272 345.463 260.165 346.066 260.051C345.32 258.224 343.68 254.355 342.12 251.648C340.026 248.003 332.6 241.849 340.026 241.148C346.626 240.523 348.377 256.089 348.684 259.551C350.011 259.313 351.17 259.141 352.09 259.208C354.2 259.341 356.221 261.297 355.025 262.157H332.732C333.456 261.651 335.318 260.7 339.137 260.772Z" fill="#3A4ACE"/>
<path d="M314.855 62.1008C316.5 61.3712 323.476 62.9636 323.476 62.9636C323.476 62.9636 341.03 55.161 343.051 54.1036C345.389 52.874 351.619 38.2729 356.189 30.2244C358.601 25.9839 365.836 26.0454 367.978 30.3822C368.391 31.1962 368.539 32.0893 368.412 32.9687C367.656 38.2012 352.032 56.8478 350.117 58.4302C346.621 61.3096 325.528 65.7735 325.528 65.7735C325.528 65.7735 321.387 67.1346 318.615 67.3027C315.844 67.4707 313.205 62.8263 314.855 62.1008Z" fill="#F48484"/>
<path d="M352.883 26.6665C355.962 25.3506 358.484 20.5384 358.22 19.6796C358.104 19.417 357.971 19.161 357.818 18.9131L343.167 13.6478C343.167 13.6478 344.738 5.85962 349.424 4.80411C349.562 3.27925 350.503 0 356.12 0C356.12 0 353.904 0.510333 352.762 1.531C352.762 1.531 357.421 -0.79317 362.488 2.77711C367.56 6.3474 364.419 15.3038 365.953 17.0049C367.481 18.706 373.495 19.0545 372.76 24.5452C372.03 30.0359 353.708 36.9305 354.888 41.4784C354.888 41.4784 348.16 33.0753 352.381 28.8266C351.656 29.5317 350.27 31.0647 350.08 32.8007C350.08 32.7925 349.403 28.1544 352.883 26.6665ZM352.841 28.4188C352.841 28.4188 352.793 28.4536 352.719 28.5192C352.756 28.4885 352.804 28.4516 352.841 28.4188Z" fill="#2C3A64"/>
<path d="M369.925 125.669L373.563 125.226C373.563 125.226 385.771 116.981 387.59 101.595C387.781 100.015 387.812 98.423 387.675 96.8381C387.654 96.6563 387.696 96.4721 387.807 96.3136C388.193 95.8052 389.172 94.5286 390.489 92.7145C391.805 90.9008 394.006 87.5356 396.455 83.7439C400.86 76.9168 405.985 68.7536 407.741 66.1525C413.348 57.8645 410.635 52.2896 410.635 52.2896C410.635 52.2896 395.011 50.978 390.727 47.7949L389.182 49.8141C389.182 49.8141 385.808 62.5539 385.961 62.6113C385.792 63.0456 385.623 63.4861 385.448 63.9349C382.777 70.9425 379.704 79.7043 378.027 86.8367C377.086 90.8518 376.584 94.3501 376.859 96.7316C376.948 97.5515 376.837 98.8057 376.578 100.357C375.071 109.498 369.925 125.669 369.925 125.669Z" fill="#3A4ACE"/>
<path d="M362.314 129.573H377.467C377.467 129.573 377.827 127.612 377.033 126.124C376.277 124.689 375.198 124.651 376.896 122.41C375.933 123.252 372.839 123.601 370.649 123.351C370.379 123.72 368.92 126.202 368.021 126.749C367.032 127.354 362.62 127.139 362.314 129.573Z" fill="#293EB7"/>
<path d="M385.453 63.9453C386.776 70.1472 389.901 80.4689 396.449 83.7539C400.855 76.9272 405.98 68.7636 407.736 66.1629C413.343 57.8745 410.635 52.3 410.635 52.3C410.635 52.3 395.005 50.9884 390.721 47.8053L389.177 49.8241C389.177 49.8241 385.802 62.5639 385.956 62.6213C385.797 63.0456 385.623 63.4861 385.453 63.9453Z" fill="#293EB7"/>
<path d="M416.513 145.142L419.579 143.132C419.579 143.132 426.867 130.331 421.68 115.732C421.15 114.231 420.473 112.79 419.647 111.43C419.548 111.277 419.504 111.093 419.533 110.901C419.654 110.275 419.965 108.697 420.342 106.487C420.719 104.277 421.2 100.285 421.714 95.801C422.638 87.7285 423.615 78.1394 424.036 75.0294C425.389 65.1151 420.486 61.32 420.486 61.32C420.486 61.32 405.899 67.0686 400.648 66.1139L400.158 68.6084C400.158 68.6084 402.779 81.5242 402.942 81.5077C402.983 81.972 403.026 82.442 403.069 82.9217C403.78 90.3872 404.909 99.6034 406.567 106.74C407.502 110.757 408.602 114.115 409.904 116.128C410.348 116.823 410.804 117.997 411.26 119.503C413.959 128.365 416.513 145.142 416.513 145.142Z" fill="#3A4ACE"/>
<path d="M403.078 82.9287C407.012 87.9022 414.389 95.7695 421.714 95.8124C422.638 87.7401 423.614 78.1507 424.036 75.0411C425.388 65.1264 420.49 61.3294 420.49 61.3294C420.49 61.3294 405.899 67.0803 400.647 66.1256L400.158 68.6197C400.158 68.6197 402.779 81.5355 402.942 81.519C402.988 81.9697 403.026 82.442 403.078 82.9287Z" fill="#293EB7"/>
<path d="M363.043 37.1785C372.268 35.3769 366.376 24.3566 365.841 24.5513C364.561 24.33 361.753 22.4219 359.241 18.6958L358.902 18.9458L353.232 23.1679C353.232 23.1679 354.544 24.8075 355.644 26.4205C356.506 27.6789 357.241 28.9209 357.12 29.3472C356.66 29.6506 360.579 37.6581 363.043 37.1785Z" fill="#FC9490"/>
<path d="M357.009 28.7426C357.009 28.7426 354.93 31.2328 353.666 33.4565C352.402 35.6803 348.964 42.8248 348.964 42.8248C348.964 42.8248 352.635 47.668 358.823 48.1946C358.823 48.1946 362.895 44.2166 362.425 40.099C361.959 35.9815 357.009 28.7426 357.009 28.7426Z" fill="#3566C9"/>
<path d="M353.232 23.1699C353.232 23.1699 354.544 24.8096 355.644 26.4205C359.167 24.5759 359.172 20.8683 358.902 18.9459L353.232 23.1699Z" fill="#F48484"/>
<path d="M353.079 25.2851C353.079 25.2851 361.631 21.2393 358.585 16.7488C355.538 12.2583 354.586 8.71464 348.996 11.1064C343.405 13.4982 343.516 15.7302 344.103 17.4395C344.696 19.1488 350.773 26.2217 353.079 25.2851Z" fill="#FC9490"/>
<path d="M342.66 14.8202C343.051 12.826 344.241 12.6354 345.071 12.7706C348.229 8.33134 353.396 10.0632 353.396 10.0632C355.11 11.8423 357.495 13.0597 360.15 13.5064C360.15 13.5064 359.156 15.0763 355.062 16.0478C353.814 16.345 352.397 16.1647 351.027 15.7732C352.851 16.6123 354.803 17.2357 356.829 17.626C351.439 18.0359 346.309 13.8569 345.775 13.408C345.531 14.0577 345.087 15.4166 345.352 16.4106C345.706 17.7612 347.113 20.2063 346.256 20.522C346.256 20.5281 342.072 17.8104 342.66 14.8202Z" fill="#2C3A64"/>
<path d="M361.954 45.9097C363.906 46.4854 366.64 46.8032 369.433 47.0615C373.415 47.4321 377.53 47.6763 379.683 48.4139C380.698 48.7591 381.666 49.2071 382.555 49.7483C382.587 49.7637 382.613 49.7816 382.64 49.8016C383.068 50.0624 383.465 50.354 383.83 50.6726C384.422 51.1756 384.893 51.7704 385.221 52.4247C386.009 54.0849 384.961 58.6823 384.295 61.1969C384.157 61.6911 384.221 62.209 384.47 62.6695C384.723 63.13 385.147 63.5065 385.675 63.7402C387.188 64.4046 388.68 65.0194 390.139 65.5851L390.383 65.6712C390.367 65.4171 390.362 65.1629 390.362 64.915C390.362 63.8521 390.451 62.791 390.621 61.7381C390.98 63.4882 392.334 65.378 393.598 66.8331C413.93 73.7666 428.136 70.752 427.903 67.2985C427.105 55.3087 417.59 45.1101 417.59 45.1101C399.834 27.5703 363.932 22.9547 363.932 22.9547C363.932 22.9547 362.213 22.7805 360.14 24.8977C357.157 27.9495 357.003 28.7446 357.003 28.7446C357.003 28.7446 356.221 44.2145 361.954 45.9097Z" fill="#6D89D0"/>
<path d="M369.443 47.0673C373.426 47.4363 377.541 47.6821 379.694 48.4201C380.572 37.24 374.368 28.8307 374.368 28.8307C374.368 28.8307 370.316 42.8351 369.443 47.0673Z" fill="#3566C9"/>
<path d="M325.269 68.0568C325.502 67.7553 325.581 67.3888 325.491 67.0373C325.407 66.6862 325.158 66.3784 324.804 66.1812L315.283 60.9057C314.929 60.7102 314.495 60.642 314.083 60.7156C313.67 60.7897 313.305 60.9993 313.072 61.2992C312.845 61.6013 312.766 61.9677 312.85 62.3196C312.94 62.6716 313.189 62.9794 313.538 63.1766L323.064 68.4541C323.418 68.65 323.852 68.7178 324.264 68.6434C324.677 68.5689 325.042 68.358 325.269 68.0568Z" fill="#3A4ACE"/>
<path d="M314.612 62.4944L314.982 62.0148L306.583 57.6287C306.086 57.3533 305.52 57.1873 304.927 57.1457C304.34 57.1041 303.748 57.1886 303.203 57.3911L299.469 58.7805L299.681 59.0675L303.261 57.5076C303.78 57.315 304.351 57.2347 304.911 57.2747C305.477 57.3142 306.022 57.4727 306.493 57.7351L314.612 62.4944Z" fill="#3A4ACE"/>
<path d="M336.815 75.6992C340.026 75.5661 343.506 77.8964 343.506 77.8964C343.506 77.8964 354.798 61.6478 356.549 60.127C359.294 57.7393 361.965 28.5766 365.344 26.6664C365.344 26.6664 375.325 27.5047 376.129 33.02C376.927 38.5353 366.55 60.986 365.069 63.0189C362.361 66.7203 346.441 79.4152 346.441 79.4152C346.441 79.4152 344.807 82.0999 342.776 81.8233C340.75 81.5467 331.801 76.4476 331.801 76.4476C331.801 76.4476 333.599 75.8328 336.815 75.6992Z" fill="#FC9490"/>
<path d="M384.3 61.2053C384.168 61.6974 384.232 62.2132 384.48 62.6716C384.729 63.1304 385.147 63.5061 385.675 63.7402C387.188 64.4046 388.68 65.0194 390.139 65.5851C390.219 65.38 390.287 65.1504 390.356 64.915C390.61 63.8709 390.695 62.8018 390.61 61.7381C390.272 56.4298 386.025 52.4106 383.835 50.683C384.427 51.186 384.898 51.7808 385.226 52.4352C386.019 54.0933 384.972 58.6902 384.3 61.2053Z" fill="#3566C9"/>
<path d="M363.932 22.9547C363.932 22.9547 362.372 21.2762 361.314 21.3315C361.314 21.3315 357.04 26.4123 357.009 28.7446C357.009 28.7426 362.335 22.717 363.932 22.9547Z" fill="#3566C9"/>
<path d="M360.14 37.199C360.14 37.199 359.114 22.9835 371.919 26.4205C384.718 29.8576 369.925 54.3125 369.925 54.3125C369.925 54.3125 362.414 53.9967 359.748 48.4264L360.14 37.199Z" fill="#6D89D0"/>
<path d="M243.443 196.81C245.303 207.818 248.546 217.896 253.518 226.2C280.862 271.854 297.131 230.353 309.259 211.462C320.668 193.682 332.653 186.813 350.588 197.421C363.789 205.221 368.015 259.368 389.277 261.909C406.498 263.959 470.575 213.584 455.475 106.393C455.163 104.117 454.576 101.875 453.719 99.7013C449.335 88.6013 436.297 76.3369 400.273 81.0508C367.317 85.3546 365.043 90.5543 344.558 82.6474C324.079 74.7404 295.857 50.2853 270.411 67.9358C254.692 78.827 235.079 147.273 243.443 196.81Z" fill="#F2564B"/>
<path d="M243.443 196.81C245.329 203.81 247.906 210.253 251.28 215.871C278.625 261.528 294.889 220.023 307.017 201.135C318.43 183.353 330.399 176.485 348.351 187.093C361.552 194.892 365.778 249.041 387.04 251.58C403.822 253.587 465.112 205.781 454.238 104.129C454.079 102.661 453.904 101.182 453.719 99.6913C449.335 88.5909 436.297 76.3266 400.273 81.0404C367.317 85.3446 365.043 90.5444 344.558 82.637C324.079 74.73 295.857 50.275 270.411 67.9254C259.737 75.3265 247.277 109.244 242.987 145.763C240.957 163.042 240.756 180.9 243.443 196.81Z" fill="#FC9490"/>
<path d="M271.585 83.1312C265.111 93.0036 266.518 113.497 274.616 114.569C282.708 115.64 289.716 97.7113 298.734 90.6837C311.782 80.5259 302.542 73.2296 294.439 72.1597C286.336 71.0902 277.541 74.0412 271.585 83.1312Z" fill="#F48484"/>
<path d="M242.847 192.89C243.024 194.21 243.222 195.516 243.443 196.808C245.329 203.81 247.906 210.253 251.28 215.883C271.876 250.27 286.188 235.208 297.174 217.607C300.775 211.844 304.023 205.806 307.011 201.145C313.443 191.135 320.038 184.583 327.792 182.66C331.891 181.636 336.302 181.926 341.184 183.673C343.701 184.603 346.103 185.753 348.345 187.104C356.75 192.07 361.515 215.818 369.359 233.077C373.828 242.931 379.307 250.668 387.035 251.592C400.871 253.246 444.95 221.054 453.915 152.737C454.968 144.646 455.502 136.513 455.512 128.372C455.533 121.766 455.227 114.89 454.597 107.746C454.486 106.55 454.37 105.348 454.238 104.139C451.482 107.057 448.372 110.158 444.902 113.349C422.503 133.933 385.12 158.179 331.388 160.427C322.402 160.792 313.395 160.556 304.446 159.722C285.654 157.996 265.185 153.619 242.987 145.763C242.264 151.886 241.781 158.082 241.566 164.239C241.226 174.044 241.593 183.745 242.847 192.89Z" fill="#F48484"/>
<path d="M327.797 182.658C331.896 181.634 336.307 181.924 341.189 183.671C343.707 184.601 346.108 185.751 348.351 187.102C356.755 192.068 361.52 215.816 369.359 233.075C373.833 242.929 379.313 250.666 387.04 251.59C400.876 253.244 444.955 221.052 453.92 152.735C444.998 167.428 422.408 222.499 384.76 211.592C359.78 204.356 362.314 180.814 327.797 182.658Z" fill="#F48484"/>
<path d="M242.847 192.89C243.024 194.21 243.222 195.516 243.443 196.808C245.228 203.391 247.853 209.787 251.28 215.883C279.164 265.752 298.448 215.156 309.439 197.554C309.159 197.94 290.213 224.981 269.914 215.721C252.952 207.993 241.858 188.944 241.566 164.241C241.226 174.044 241.593 183.745 242.847 192.89Z" fill="#F48484"/>
<path d="M82.6807 224.265C82.6807 224.265 87.6868 217.391 82.9894 213.024C82.9894 213.024 79.5578 210.579 76.7592 210.766C76.7592 210.766 80.7238 218.592 79.4446 219.368C78.165 220.145 75.562 210.276 75.562 210.276C75.562 210.276 67.7535 209.385 65.2427 210.805C65.2427 210.805 71.9175 217.235 70.5117 217.618C69.1055 218.002 61.8951 211.69 61.8951 211.69C61.8951 211.69 54.6271 213.146 55.015 218.363C55.4024 223.581 57.9074 225.193 59.0065 225.056C60.1057 224.918 66.5467 222.023 66.6792 223.085C66.8117 224.145 62.9425 227.616 60.2302 227.778C60.2302 227.778 65.3537 234.427 68.7584 232.508C72.1632 230.589 72.4547 227.541 74.5764 226.412C76.6978 225.284 78.5125 225.284 77.6455 226.437C76.7785 227.591 72.9266 228.733 71.7122 231.26C70.4982 233.786 69.4109 235.493 72.9325 234.872C76.4542 234.251 82.1839 231.215 82.435 227.74L82.6807 224.265Z" fill="#3566C9"/>
<path d="M57 218.042C57 218.042 77.7838 217.124 82.3749 223.888C82.3749 223.888 83.3848 227.332 86.5132 230.492L87 232C87 232 83.3989 227.683 82.11 227.421C82.11 227.421 84.1178 219.05 57 218.042Z" fill="#3566C9"/>
<path d="M86.5 230.5C86.5 230.5 90.74 234.687 90.9999 241.911L90.3207 242C90.3207 242 89.1737 234.925 86.9999 232C84.8262 229.075 86.5 230.5 86.5 230.5Z" fill="#3566C9"/>
<path d="M100.321 215.401C100.321 215.401 92.2266 210.122 96.0047 202.956C96.0047 202.956 99.0265 198.558 102.263 197.427C102.263 197.427 100.537 208.11 102.263 208.362C103.988 208.614 103.45 196.296 103.45 196.296C103.45 196.296 111.977 191.529 115.323 191.896C115.323 191.896 110.034 202.329 111.761 202.078C113.488 201.825 119.423 191.279 119.423 191.279C119.423 191.279 128.165 189.394 129.56 195.427C130.956 201.46 128.696 204.477 127.4 204.854C126.104 205.231 117.797 205.104 118.013 206.362C118.23 207.62 123.84 209.629 126.969 208.498C126.969 208.498 123.517 218.428 118.976 217.926C114.436 217.424 113.04 214.154 110.234 213.902C107.429 213.65 105.378 214.531 106.78 215.412C108.182 216.293 112.932 215.701 115.198 217.944C117.463 220.187 119.292 221.577 115.091 222.576C110.889 223.575 103.327 222.953 101.816 219.17L100.321 215.401Z" fill="#6D89D0"/>
<path d="M125 197C125 197 102.678 205.795 100.126 215.622C100.126 215.622 100.232 220.018 98 225.061V227C98 227 100.339 220.406 101.614 219.5C101.614 219.5 96.6174 210.967 125 197Z" fill="#6D89D0"/>
<path d="M97.9845 225.184C97.9845 225.184 95.5 231.5 96.5753 239L97.4177 238.717C97.4177 238.717 96.3242 230.5 98.3151 226.159C100.03 221.957 97.9845 225.184 97.9845 225.184Z" fill="#6D89D0"/>
<path d="M87.0076 207.787C87.0076 207.787 97.6436 200.697 92.6804 191.07C92.6804 191.07 88.7098 185.16 84.454 183.642C84.454 183.642 86.7238 197.989 84.454 198.332C82.1842 198.675 82.8993 182.133 82.8993 182.133C82.8993 182.133 71.6961 175.716 67.3002 176.223C67.3002 176.223 74.2497 190.237 71.9795 189.899C69.7097 189.561 61.9112 175.378 61.9112 175.378C61.9112 175.378 50.4263 172.833 48.5818 180.951C46.7378 189.069 49.7167 193.109 51.4171 193.616C53.1176 194.122 64.0489 193.954 63.7557 195.64C63.462 197.327 56.0986 200.038 51.9848 198.512C51.9848 198.512 56.5222 211.853 62.4789 211.177C68.435 210.502 70.2774 206.112 73.9659 205.774C77.6544 205.436 80.3457 206.616 78.5034 207.799C76.6614 208.982 70.4193 208.188 67.4421 211.201C64.4648 214.214 62.0531 216.074 67.584 217.426C73.1148 218.777 83.0412 217.93 85.0255 212.865L87.0076 207.787Z" fill="#3A4ACE"/>
<path d="M54 184C54 184 83.7648 195.428 87.1661 208.198C87.1661 208.198 87.0242 213.912 90 220.467V223C90 223 86.8922 214.428 85.1811 213.251C85.1811 213.239 91.8431 202.148 54 184Z" fill="#6D89D0"/>
<path d="M90 220.5C90 220.5 94.7235 228.887 92.2325 239L91.1078 238.623C91.1078 238.623 91.7861 227.603 89.4999 222C87.2142 216.397 90 220.5 90 220.5Z" fill="#6D89D0"/>
<path d="M66.4878 236.759H66V236H109V236.759H108.302C108.178 241.559 106.875 246.213 104.554 250.153C102.233 254.093 98.9924 257.149 95.2281 258.949H106.155C106.839 258.949 107.496 259.271 107.98 259.843C108.464 260.414 108.736 261.191 108.737 262H66.3218C66.3235 261.192 66.5961 260.417 67.08 259.846C67.564 259.276 68.22 258.955 68.9034 258.956H79.5712C75.8039 257.158 72.5607 254.101 70.2376 250.16C67.9145 246.218 66.6115 241.562 66.4878 236.759Z" fill="#3A4ACE"/>
<path d="M88 259H93.1209C96.825 257.216 100.014 254.186 102.301 250.28C104.587 246.375 105.873 241.761 106 237H100.881C100.753 241.761 99.4677 246.375 97.1808 250.281C94.8939 254.186 91.7045 257.216 88 259Z" fill="#6D89D0"/>
<path d="M150.766 174.528C152.288 174.528 154.423 173.185 156.478 170.937C158.332 168.908 161.678 164.378 163.252 156.885C164.794 149.56 164.237 141.477 161.598 132.859C161.419 132.269 161.169 131.697 160.853 131.151C159.217 128.344 155.33 125.485 146.09 127.813C143.731 128.405 142.026 128.942 140.654 129.374C137.345 130.414 136.105 130.809 132.33 129.844C130.904 129.439 129.508 128.96 128.151 128.409C123.25 126.544 117.153 124.222 112.57 128.395C108.914 131.726 106.698 149.628 110.882 162.083C111.847 164.997 113.137 167.432 114.676 169.318C117.452 172.72 119.828 174.251 121.943 173.995C125.04 173.622 126.624 169.603 128.023 166.059C128.332 165.274 128.624 164.534 128.913 163.889C130.232 160.948 131.65 159.314 133.377 158.751C134.706 158.314 137.121 158.199 138.35 158.986C139.581 159.773 141.003 162.659 142.545 165.545C144.879 169.953 147.296 174.513 150.759 174.526L150.766 174.528ZM152.636 128.276C164.355 130.325 164.871 160.558 155.797 170.496C153.566 172.939 151.697 173.804 150.764 173.804C147.855 173.794 145.458 169.259 143.333 165.258C141.671 162.12 140.048 159.662 138.577 158.699C137.07 157.701 134.641 157.574 133.069 158.085C131.098 158.728 129.521 160.497 128.11 163.645C127.813 164.305 127.519 165.053 127.205 165.844C125.954 169.023 124.089 172.251 121.521 172.56C119.784 172.765 118.077 171.566 115.54 168.461C114.056 166.641 112.667 164.741 111.715 161.903C107.682 149.891 109.756 132.06 113.207 128.918C117.368 125.128 122.913 127.239 127.801 129.1C129.193 129.664 130.626 130.153 132.089 130.565C136.139 131.59 137.55 131.154 140.958 130.082C142.313 129.633 147.798 127.43 152.636 128.276Z" fill="#C8DDFD"/>
<path d="M121.345 135.38L121.521 135.185L105.663 124.894H73.4006V125.14H105.564L121.345 135.38Z" fill="#C8DDFD"/>
<path d="M73.4006 168.4H105.663L105.702 168.375L121.521 158.109L121.345 157.917L105.564 168.156H73.4006V168.4Z" fill="#C8DDFD"/>
<path d="M72.4429 146.73H121.432V146.973H72.4429V146.73Z" fill="#C8DDFD"/>
<path d="M73.9285 142.012H88.3993C88.5395 142.011 88.6733 141.964 88.7722 141.88C88.8711 141.796 88.9272 141.682 88.9277 141.563C88.9272 141.445 88.8711 141.331 88.7722 141.247C88.6733 141.163 88.539 141.116 88.3993 141.116H73.9285C73.7894 141.117 73.6561 141.164 73.5577 141.248C73.4588 141.331 73.4033 141.445 73.4028 141.563C73.4028 141.682 73.4583 141.796 73.5567 141.88C73.6551 141.964 73.7889 142.011 73.9285 142.012Z" fill="#C8DDFD"/>
<path d="M73.9285 143.803H88.3993C88.539 143.803 88.6733 143.756 88.7722 143.673C88.8711 143.589 88.9272 143.475 88.9277 143.356C88.9272 143.237 88.8711 143.124 88.7722 143.04C88.6733 142.956 88.5395 142.908 88.3993 142.908H73.9285C73.7889 142.908 73.6551 142.956 73.5567 143.04C73.4583 143.124 73.4028 143.238 73.4028 143.356C73.4033 143.475 73.4588 143.588 73.5577 143.672C73.6561 143.755 73.7894 143.803 73.9285 143.803Z" fill="#C8DDFD"/>
<path d="M73.9285 121.564H88.3993C88.5395 121.563 88.6733 121.516 88.7722 121.432C88.8711 121.348 88.9272 121.234 88.9277 121.115C88.9272 120.996 88.8711 120.882 88.7722 120.798C88.6733 120.714 88.5395 120.667 88.3993 120.666H73.9285C73.7889 120.667 73.6551 120.714 73.5567 120.798C73.4583 120.883 73.4028 120.996 73.4028 121.115C73.4028 121.234 73.4583 121.348 73.5567 121.432C73.6551 121.516 73.7889 121.563 73.9285 121.564Z" fill="#C8DDFD"/>
<path d="M73.9285 123.355H88.3993C88.539 123.355 88.6733 123.308 88.7722 123.224C88.8711 123.141 88.9272 123.027 88.9277 122.908C88.9272 122.789 88.8711 122.675 88.7722 122.591C88.6733 122.507 88.5395 122.46 88.3993 122.46H73.9285C73.7889 122.46 73.6551 122.507 73.5567 122.591C73.4583 122.676 73.4028 122.789 73.4028 122.908C73.4033 123.027 73.4588 123.14 73.5577 123.224C73.6561 123.307 73.7894 123.354 73.9285 123.355Z" fill="#C8DDFD"/>
<path d="M73.9285 164.577H88.3993C88.5395 164.577 88.6733 164.529 88.7722 164.445C88.8711 164.361 88.9272 164.247 88.9277 164.128C88.9272 164.01 88.8711 163.896 88.7722 163.812C88.6733 163.728 88.5395 163.68 88.3993 163.679H73.9285C73.7889 163.68 73.6551 163.728 73.5567 163.812C73.4583 163.896 73.4028 164.01 73.4028 164.128C73.4028 164.247 73.4583 164.361 73.5567 164.445C73.6551 164.529 73.7889 164.577 73.9285 164.577Z" fill="#C8DDFD"/>
<path d="M73.9285 166.371H88.3993C88.539 166.371 88.6733 166.324 88.7722 166.24C88.8711 166.156 88.9272 166.043 88.9277 165.924C88.9272 165.805 88.8711 165.691 88.7722 165.607C88.6733 165.523 88.5395 165.476 88.3993 165.475H73.9285C73.7889 165.476 73.6551 165.523 73.5567 165.607C73.4583 165.691 73.4028 165.805 73.4028 165.924C73.4033 166.042 73.4588 166.155 73.5577 166.239C73.6561 166.323 73.7894 166.37 73.9285 166.371Z" fill="#C8DDFD"/>
<path d="M140.608 207.105L334.699 136.853C335.403 136.597 335.958 136.114 336.244 135.511C336.529 134.907 336.524 134.232 336.228 133.634L335.572 132.328C335.271 131.73 334.705 131.258 333.991 131.015C333.282 130.773 332.489 130.779 331.785 131.033L137.69 201.285C136.986 201.541 136.431 202.023 136.145 202.627C135.86 203.231 135.867 203.905 136.165 204.504L136.819 205.81C137.121 206.408 137.689 206.879 138.399 207.122C139.109 207.365 139.903 207.359 140.608 207.105Z" fill="#1C468A"/>
<path d="M291.758 132.322L297.359 143.494L330.426 131.525L324.825 120.353C324.566 119.836 324.074 119.429 323.46 119.219C322.847 119.009 322.164 119.015 321.556 119.234L293.075 129.542C292.466 129.764 291.985 130.181 291.742 130.701C291.493 131.222 291.498 131.805 291.758 132.322Z" fill="#739AF0"/>
<path d="M282.179 125.567C283.829 128.473 287.04 131.402 293.075 129.542C303.769 126.247 322.159 117.733 327.802 118.317C327.797 118.305 327.792 118.292 327.787 118.279C327.744 118.188 327.633 117.944 327.427 117.6C325.925 115.058 319.541 107.084 302.166 115.827C288.658 122.626 280.561 121.086 280.561 121.086C280.561 121.086 280.561 121.086 280.561 121.101C280.561 121.115 280.561 121.125 280.561 121.144C280.857 122.675 281.402 124.163 282.179 125.567Z" fill="#739AF0"/>
<path d="M281 122.5C280.735 121.72 280.592 121.211 280.561 121.107C280.561 121.118 280.561 121.132 280.561 121.15C280.666 121.608 280.814 122.06 281 122.5Z" fill="#F5D7B8"/>
<path d="M327.797 118.317C327.797 118.317 322.223 110.644 312.057 115.378C301.897 120.113 285.527 125.216 280.555 121.086C280.555 121.086 284.654 129.395 294.91 126.446C305.16 123.497 320.98 113.429 327.797 118.317Z" fill="#EDF4FF"/>
<path d="M282.179 125.567C283.829 128.473 287.04 131.402 293.075 129.542C303.769 126.247 322.159 117.733 327.802 118.317C327.802 118.317 322.275 115.493 309.566 121.992C286.104 133.986 282.47 126.057 281.01 122.513C281.269 123.304 281.655 124.368 282.179 125.567Z" fill="#EDF4FF"/>
<path d="M280.555 121.086C289.811 124.388 304.012 115.923 314.289 113.298C324.137 110.777 327.517 117.709 327.781 118.284C327.739 118.195 327.623 117.95 327.422 117.606C325.92 115.065 319.536 107.09 302.161 115.833C288.648 122.626 280.555 121.086 280.555 121.086Z" fill="#EDF4FF"/>
<path d="M291.758 132.322L294.228 137.241C304.488 127.485 320.356 122.589 325.264 121.222L324.825 120.344C324.566 119.828 324.074 119.421 323.46 119.211C322.847 119.002 322.164 119.007 321.556 119.225L293.075 129.535C292.466 129.756 291.985 130.174 291.736 130.696C291.488 131.219 291.498 131.804 291.758 132.322Z" fill="#B3CDF2"/>
<path d="M177.238 250.11C177.238 250.11 174.542 252.44 175.068 254.094C175.594 255.748 178.026 256.852 178.356 258.874C178.685 260.896 179.997 262 181.18 262H186.821C186.821 262 187.694 260.578 185.587 260.139C183.481 259.701 182.693 257.334 182.824 255.128C182.955 252.922 182.625 249.98 182.625 249.98L178.157 249L177.238 250.11Z" fill="#293EB7"/>
<path d="M177 248.633C177.477 249.998 182.749 252 182.749 252C182.749 252 185.621 247.632 194.819 231.975C195.61 230.626 196.437 229.148 197.288 227.57C206.32 210.83 218 183.008 218 183.008L195.678 177C195.678 177 194.617 185.646 194.435 190.017C194.318 192.678 192.738 198.391 190.744 203.373C189.471 206.544 188.028 209.422 186.675 211.041C180.517 218.41 177 248.633 177 248.633Z" fill="#2C3A64"/>
<path d="M191 203.597C192.391 210.523 194.942 222.121 197.483 228C206.43 211.118 218 183.059 218 183.059L195.888 177C195.888 177 194.837 185.72 194.656 190.127C194.545 192.819 192.982 198.572 191 203.597Z" fill="#293EB7"/>
<path d="M227 173.672L228.754 173.591C228.754 173.591 230.837 170.517 234.252 172.914C234.252 172.914 235.601 174.015 234.676 174.724C233.75 175.433 233.998 175.004 232.703 176.037C231.409 177.07 229.759 177.314 228.71 176.562L227.352 176.281L227 173.672Z" fill="#FC9490"/>
<path d="M208.391 136C208.391 136 194.533 148.865 200.486 169.431C202.344 175.849 228.542 177 228.542 177C228.542 177 229.952 175.536 227.824 173.055C227.824 173.055 211.993 166.02 210.139 165.049C208.495 164.187 213.715 148.72 212.883 143.627C212.051 138.534 208.391 136 208.391 136Z" fill="#739AF0"/>
<path d="M209.098 256.077C209.098 256.077 208.614 261.444 209.799 262L225 261.971C225 261.971 225 260.297 222.559 259.924C220.117 259.552 215.828 258.187 215.108 255.146C214.386 252.105 209.098 256.077 209.098 256.077Z" fill="#293EB7"/>
<path d="M222 182.268C222 182.268 221.215 191.485 220.279 202.574C219.019 217.625 217.509 236.111 217.358 239.613C217.1 245.694 216.067 255.423 216.067 255.423C216.067 255.423 213.605 257.735 208.681 256.76C208.681 256.76 204.291 242.874 203.039 228.18C203.02 227.94 202.998 227.696 202.979 227.454C201.814 212.497 200 181 200 181L222 182.268Z" fill="#2C3A64"/>
<path d="M202 131.866C202 131.866 210.616 137.31 216 135.703C216 135.703 214.501 133.526 213.07 131.787C213.256 130.75 213.401 129.85 213.488 129.085C213.617 128.17 213.692 127.248 213.715 126.325L210.112 123.603L206.695 121C206.97 128.322 202 131.866 202 131.866Z" fill="#FC9490"/>
<path d="M189.027 199.607C200.267 206.824 222.976 204.762 223.148 204.623C223.526 200.03 223.74 192.455 223.859 185.447C224.005 176.738 224.007 168.896 223.996 168.738C223.996 168.738 223.996 168.475 223.977 168.029C223.941 166.613 223.85 163.37 223.762 160.953C223.745 160.502 223.728 160.081 223.708 159.703C223.708 159.682 223.708 159.664 223.708 159.641C223.64 158.558 222.941 155.655 221.959 152.273C220.517 147.316 218.472 141.335 216.899 138.554C216.094 137.124 213.382 132.994 213.382 132.994C211.47 133.354 210.091 132.817 208.071 131.881C205.86 130.859 203.481 129.772 203.097 130.042C200.207 132.052 198.251 136.568 197.209 142.34C196.599 145.673 188.473 199.249 189.027 199.607Z" fill="#6D89D0"/>
<path d="M206 123.215C206 123.215 208.334 127.737 212.776 129C212.904 127.998 212.978 126.99 213 125.979L209.439 123L206 123.215Z" fill="#F48484"/>
<path d="M215.177 125.831C215.177 125.831 205.835 127.227 204.956 122C204.078 116.772 202.282 113.444 208.21 112.337C214.139 111.23 215.636 113.065 216.402 114.743C217.169 116.421 217.586 125.336 215.177 125.831Z" fill="#FC9490"/>
<path d="M201.709 111.805C201.627 111.718 201.431 111.65 201 111.629C201.247 111.504 201.524 111.435 201.807 111.425C201.896 110.891 202.216 109.944 203.247 109.713C203.079 109.801 202.936 109.921 202.827 110.066C202.718 110.21 202.648 110.374 202.621 110.546C203.817 109.451 206.38 108.653 213.473 109.152C222.827 109.81 219.742 115.152 218.531 115.791C217.319 116.429 214.274 114.68 212.018 114.841C209.762 115.002 209.334 117.908 208.57 118.308C207.807 118.708 208.105 118.001 207.069 117.584C206.034 117.167 205.936 118.696 206.236 119.692C206.536 120.688 205.111 122 205.111 122L203.673 120.618C202.238 119.236 200.882 113.386 201.535 112.139C201.594 112.029 201.657 111.918 201.709 111.805Z" fill="#2C3A64"/>
<path d="M223.861 185C224.005 176.418 224.007 168.689 223.996 168.534C223.996 168.534 223.996 168.275 223.977 167.836C215.284 157.614 204.078 147 204.078 147C204.078 147 201.653 176.982 223.861 185Z" fill="#3566C9"/>
<path d="M212 145C212.122 145.187 214.949 160.822 222.201 160.995C222.807 161.02 223.415 160.956 224 160.803C223.983 160.352 223.965 159.932 223.946 159.555C223.944 159.535 223.944 159.514 223.946 159.494C223.874 158.414 223.167 155.517 222.172 152.142C219.205 151.569 215.741 149.021 212 145Z" fill="#3566C9"/>
<path d="M203 129.565C203 129.565 203.837 127.261 204.503 127C204.503 127 213.876 129.074 217 139C217 139 213.355 132.909 203 129.565Z" fill="#6D89D0"/>
<path d="M244.944 166.286C245.071 166.023 245.261 165.804 245.492 165.653C245.81 165.26 246.168 164.774 246.258 164.465C246.427 163.876 247.075 163.835 247.197 164.408C247.235 164.604 247.23 164.807 247.183 165C248.259 164.822 249.836 164.854 252.129 165.404C252.129 165.404 253.916 165.745 252.371 167.028C251.341 167.887 250.687 167.684 249.213 168.855C247.744 170.027 245.902 170.363 244.771 169.564L243.278 169.294L243 166.432L244.944 166.286Z" fill="#FC9490"/>
<path d="M201.198 138.001C201.198 138.001 198.033 153.96 216.998 166.293C222.117 169.623 244.85 170 244.85 170C244.85 170 245.527 167.29 244.006 166.143C244.006 166.143 224.566 159.52 222.666 159.849C220.978 160.138 212.071 144.138 208.59 140.997C205.108 137.857 201.198 138.001 201.198 138.001Z" fill="#6D89D0"/>
<path d="M314.083 111.525L311.359 112.798L314.437 112.232C314.606 112.22 314.781 112.247 314.934 112.309C315.093 112.371 315.225 112.467 315.32 112.587L317.7 116.838L316.204 112.3C316.182 112.16 316.214 112.019 316.293 111.895C316.368 111.77 316.484 111.668 316.632 111.601L320.006 110.043L316.405 110.726C316.204 110.764 315.992 110.748 315.802 110.679C315.611 110.61 315.453 110.493 315.341 110.343L313.617 107.572L314.453 110.72C314.485 110.87 314.469 111.025 314.405 111.167C314.342 111.31 314.231 111.434 314.083 111.525Z" fill="#F8FCFF"/>
<path d="M260.832 213.122L256.067 217.261L262.096 214.418C262.451 214.299 262.832 214.261 263.202 214.308C263.577 214.355 263.926 214.485 264.223 214.684L272.373 222.319L265.862 213.604C265.719 213.322 265.682 213.01 265.746 212.708C265.815 212.406 265.984 212.128 266.238 211.909L272.156 206.826L265.111 210.2C264.72 210.389 264.265 210.467 263.81 210.425C263.361 210.383 262.937 210.221 262.599 209.964L256.903 205.088L261.044 211.237C261.218 211.537 261.293 211.872 261.256 212.205C261.218 212.538 261.07 212.856 260.832 213.122Z" fill="#F8FCFF"/>
<line x1="457.01" y1="262.5" y2="262.5" stroke="#6D89D0"/>
</svg>
