<svg width="1201" height="284" viewBox="0 0 1201 284" fill="none" xmlns="http://www.w3.org/2000/svg">
<path fill-rule="evenodd" clip-rule="evenodd" d="M0.535645 180L50.5356 168C100.536 156 200.536 132 300.536 150C400.536 168 500.536 228 600.536 258C700.536 288 800.536 288 900.536 276C1000.54 264 1100.54 240 1150.54 228L1200.54 216V0H1150.54C1100.54 0 1000.54 0 900.536 0C800.536 0 700.536 0 600.536 0C500.536 0 400.536 0 300.536 0C200.536 0 100.536 0 50.5356 0H0.535645V180Z" fill="#C7E8FF"/>
</svg>
