<svg width="485" height="568" viewBox="0 0 485 568" fill="none" xmlns="http://www.w3.org/2000/svg">
<path fill-rule="evenodd" clip-rule="evenodd" d="M485 31.2531C483.121 21.3399 480.203 13.8372 475.805 7.97735C469.299 -0.690829 462.378 -0.505335 427.017 0.442501C411.876 0.848358 391.52 1.39399 363.749 1.44416C315.966 1.53048 306.791 1.49032 298.755 1.45514C292.495 1.42774 286.926 1.40337 264.336 1.44416L189.058 1.44419L96.5401 1.44418L0 1.44418C2.66952 17.9856 3.66508 33.3087 4.62757 48.1229C7.49423 92.245 10.0676 131.853 55.7004 185.689C97.4819 234.982 160.866 261.069 220.076 285.438C257.878 300.995 293.979 315.853 321.672 335.603C370.061 370.112 393.256 465.356 407.204 522.627C413.741 549.472 418.247 567.973 422.363 567.966C425.998 567.959 426.732 567.966 427.722 567.975C429.765 567.995 432.896 568.024 464.887 567.966L469.485 566.099L474.082 562.366L479.253 555.833L481.552 550.233L482.701 547.433L483.276 544.633L485 536.233L485 527.833L484.999 511.967C484.999 511.686 485 511.404 485 511.123V31.2531Z" fill="#C7E8FF" fill-opacity="0.51"/>
</svg>
