<svg width="954" height="734" viewBox="0 0 954 734" fill="none" xmlns="http://www.w3.org/2000/svg">
<path fill-rule="evenodd" clip-rule="evenodd" d="M3.49194 106.585L35.1755 133.231C66.8592 159.877 130.226 213.169 193.594 204.287C256.961 195.405 320.328 124.349 383.695 106.585C447.062 88.8205 510.43 124.349 573.797 124.349C637.164 124.349 700.531 88.8205 763.898 62.1744C827.266 35.5282 890.633 17.7641 922.316 8.88205L954 0V373.046H922.316C890.633 373.046 827.266 373.046 763.898 373.046C700.531 373.046 637.164 373.046 573.797 373.046C510.43 373.046 447.062 373.046 383.695 373.046C320.328 373.046 256.961 373.046 193.594 373.046C130.226 373.046 66.8592 373.046 35.1755 373.046H3.49194V106.585Z" fill="#F4F9FC"/>
<path fill-rule="evenodd" clip-rule="evenodd" d="M950.508 627.415L938.985 620.03C909.908 599.387 840.675 561.268 777.307 570.15C713.94 579.032 633.672 609.651 570.305 627.415C506.938 645.179 405.927 608.845 342.56 608.845C279.193 608.845 222.6 640.846 159.233 667.493C95.8656 694.139 63.3671 716.236 31.6835 725.118L-1.2815e-05 734V360.954H31.6835C63.3671 360.954 126.734 360.954 190.102 360.954C253.469 360.954 316.836 360.954 380.203 360.954C443.57 360.954 506.938 360.954 570.305 360.954C633.672 360.954 697.039 360.954 760.406 360.954C823.774 360.954 887.141 360.954 918.824 360.954H950.508V627.415Z" fill="#F4F9FC"/>
</svg>
