<svg width="720" height="257" viewBox="0 0 720 257" fill="none" xmlns="http://www.w3.org/2000/svg">
<path fill-rule="evenodd" clip-rule="evenodd" d="M719.841 183.327L711.115 178.248C689.096 164.045 636.66 137.818 588.673 143.929C540.683 150.04 479.894 171.105 431.905 183.327C383.916 195.552 307.418 170.552 259.429 170.552C211.439 170.552 168.58 192.57 120.591 210.902C72.6012 229.234 47.9894 244.438 23.9947 250.549L0 256.66L0.3125 0H23.9947C47.9894 0 95.979 0 143.968 0C191.958 0 239.947 0 287.937 0C335.926 0 383.916 0 431.905 0C479.894 0 527.884 0 575.873 0C623.861 0 671.854 0 695.845 0H719.841V183.327Z" fill="#F4F9FC"/>
</svg>
