<svg width="1200" height="666" viewBox="0 0 1200 666" fill="none" xmlns="http://www.w3.org/2000/svg">
<path fill-rule="evenodd" clip-rule="evenodd" d="M1200 576L1133 552C1067 528 970 499 837 523C704 547 533 624 400 654C267 684 133 648 67 630L0 612V360H67C133 360 267 360 400 360C533 360 667 360 800 360C933 360 1067 360 1133 360H1200V576Z" fill="#F4F9FC"/>
<path fill-rule="evenodd" clip-rule="evenodd" d="M1200 0H1150C1100 0 1000 0 900 24C800 48 700 96 600 150C500 204 423.5 245 323.5 233C223.5 221 100 156 50 114L0 72V360H50C100 360 200 360 300 360C400 360 500 360 600 360C700 360 800 360 900 360C1000 360 1100 360 1150 360H1200V0Z" fill="#F4F9FC"/>
</svg>
