<svg width="676" height="597" viewBox="0 0 676 597" fill="none" xmlns="http://www.w3.org/2000/svg">
<path opacity="0.3" d="M597.643 512.773C583.761 525.613 570.627 533.892 560.25 540.435C438.27 617.332 293.922 594.917 263.26 589.451C217.962 581.363 130.401 565.733 67.0983 500.327C-28.6758 401.37 -13.7633 245.469 60.5249 142.564C74.1082 123.739 145.905 19.2586 291.782 2.50371C380.073 -7.6362 482.993 12.8141 557.524 67.6779C713.971 182.829 702.833 415.474 597.643 512.773Z" fill="url(#paint0_linear)"/>
<path d="M405.035 413.915C407.077 419.632 415.103 421.661 420.35 417.827C449.29 396.678 524.963 330.376 523.481 216.208C522.232 119.798 531.97 67.4144 538.277 43.9059C539.611 38.934 532.941 35.358 528.511 38.6612C479.614 75.1184 330.999 206.682 405.035 413.915Z" fill="url(#paint1_linear)"/>
<g style="mix-blend-mode:soft-light">
<path d="M414.262 414.313C414.58 414.516 414.945 414.654 415.331 414.719C415.717 414.783 416.114 414.772 416.495 414.686C416.875 414.6 417.229 414.441 417.532 414.221C417.834 414 418.078 413.724 418.245 413.412C418.948 412.082 488.776 279.084 493.923 144.962C493.946 144.34 493.688 143.736 493.205 143.281C492.721 142.827 492.052 142.56 491.344 142.539C490.637 142.518 489.949 142.745 489.431 143.17C488.914 143.595 488.61 144.182 488.586 144.804C483.471 277.951 414.099 410.113 413.394 411.432C413.135 411.926 413.081 412.484 413.239 413.009C413.398 413.535 413.759 413.996 414.262 414.313Z" fill="white"/>
</g>
<path d="M631.487 53.9287C633.296 50.1779 627.262 46.7084 622.769 48.8949C577.147 71.0864 464.51 140.77 462.017 288.709C459.935 412.176 430.797 479.72 390.261 520.435C378.598 532.156 393.547 549.533 409.607 542.974C433.863 533.062 459.938 518.847 483.219 498.533C651.122 352.018 599.331 120.624 631.487 53.9287Z" fill="url(#paint2_linear)"/>
<g style="mix-blend-mode:soft-light">
<path d="M590.628 76.8724C582.786 95.9779 575.471 115.194 569.137 134.59C562.669 153.955 557.026 173.454 552.207 193.087C547.509 212.723 543.317 232.428 540.29 252.247C537.137 272.054 535.172 291.952 533.29 311.938C531.255 331.902 529.363 352.027 524.621 372.036C519.913 392 511.833 411.833 498.968 429.937C495.754 434.448 492.419 438.932 488.737 443.224C485.171 447.569 481.334 451.796 477.395 455.97C469.342 464.419 460.594 472.336 451.223 479.66C432.146 494.478 409.918 507.132 385.975 517.381C383.455 518.459 380.17 517.833 378.635 515.985C377.129 514.169 377.871 511.849 380.284 510.747H380.301C386.021 508.136 391.701 505.481 397.178 502.648C399.951 501.263 402.634 499.793 405.353 498.359C407.994 496.85 410.716 495.418 413.287 493.849C423.584 487.813 433.378 481.137 442.593 473.874C460.806 459.615 476.121 443.262 488.455 425.985C494.438 417.395 499.561 408.364 503.766 398.995C507.855 389.728 511.099 380.19 513.468 370.472C518.278 351.078 520.378 331.174 522.612 311.226C524.846 291.279 527.35 271.238 530.954 251.324C532.72 241.364 534.731 231.433 536.986 221.533C538.075 216.579 539.298 211.643 540.506 206.707C541.782 201.78 543.1 196.86 544.46 191.947C549.98 172.306 556.332 152.824 563.515 133.499C570.835 114.212 578.859 95.085 587.894 76.2288C588.152 75.6896 588.969 75.4125 589.716 75.6107C590.463 75.8089 590.832 76.346 590.628 76.8724Z" fill="white"/>
</g>
<path d="M416.193 60.7653L70.4092 73.9186C61.2236 74.2676 52.5417 77.7035 46.1573 83.5163C39.7729 89.3291 36.174 97.0747 36.1042 105.152L32.2815 546.588C32.2543 549.702 32.9404 552.79 34.2988 555.667C35.6572 558.544 37.6603 561.151 40.1889 563.335C42.7174 565.518 45.7199 567.232 49.0176 568.375C52.3153 569.517 55.841 570.066 59.3849 569.988L456.008 561.25C459.342 561.177 462.625 560.52 465.667 559.32C468.709 558.119 471.447 556.398 473.723 554.256C475.999 552.115 477.767 549.597 478.923 546.849C480.079 544.101 480.6 541.178 480.456 538.251L458.626 94.9507C458.395 90.2578 457.115 85.6508 454.857 81.3927C452.6 77.1347 449.41 73.3092 445.47 70.1346C441.529 66.96 436.915 64.4986 431.892 62.891C426.868 61.2834 421.534 60.5611 416.193 60.7653Z" fill="url(#paint3_linear)"/>
<path d="M397.727 555.967C397.481 555.968 397.243 555.886 397.064 555.738C396.885 555.589 396.777 555.386 396.764 555.17C396.751 554.954 396.833 554.742 396.994 554.577C397.154 554.413 397.38 554.309 397.625 554.288L441.94 552.097C455.722 551.417 466.453 541.002 465.854 528.883L462.955 470.063C462.948 469.843 463.038 469.628 463.208 469.464C463.377 469.301 463.612 469.202 463.863 469.187C463.988 469.183 464.114 469.2 464.232 469.237C464.35 469.275 464.458 469.333 464.551 469.408C464.643 469.482 464.718 469.572 464.771 469.672C464.824 469.772 464.854 469.881 464.86 469.991L467.77 528.81C468.413 541.844 456.875 553.043 442.059 553.776L397.739 555.967H397.727Z" fill="white"/>
<path d="M463.069 452.644C462.816 452.651 462.57 452.57 462.383 452.42C462.196 452.269 462.084 452.06 462.07 451.838L461.602 442.312C461.591 442.09 461.68 441.874 461.85 441.709C462.02 441.545 462.257 441.447 462.509 441.436C462.762 441.429 463.008 441.509 463.195 441.659C463.381 441.809 463.494 442.017 463.508 442.239L463.977 451.766C463.983 451.876 463.964 451.986 463.922 452.089C463.88 452.193 463.815 452.288 463.73 452.37C463.646 452.452 463.544 452.518 463.431 452.565C463.317 452.612 463.195 452.638 463.069 452.644Z" fill="white"/>
<path d="M414.953 57.2361C368.011 64.6589 206.491 88.2356 71.7966 84.2866C70.3394 84.2413 68.8865 84.4527 67.5236 84.9083C66.1608 85.3639 64.9154 86.0545 63.861 86.9394C62.8066 87.8243 61.9643 88.8857 61.3839 90.061C60.8035 91.2363 60.4966 92.5018 60.4813 93.7829L55.5137 537.228C55.4799 540.147 56.7617 542.96 59.0793 545.051C61.3969 547.143 64.5621 548.344 67.8842 548.393C124.492 549.182 357.586 551.686 440.15 540.898C442.577 540.58 444.786 539.486 446.352 537.827C447.919 536.167 448.733 534.057 448.639 531.903L428.859 67.0777C428.797 65.5912 428.372 64.1338 427.613 62.8041C426.854 61.4744 425.779 60.3033 424.461 59.3702C423.142 58.4371 421.611 57.7637 419.971 57.3955C418.331 57.0273 416.619 56.973 414.953 57.2361Z" fill="url(#paint4_linear)"/>
<path d="M220.325 51.3926L259.406 46.8405L261.145 15.0867C261.321 11.9878 260.269 8.93095 258.168 6.43724C256.067 3.94352 253.046 2.16728 249.621 1.41124C241.878 -0.268091 231.009 -0.00809377 218.896 8.10298C195.137 24.0055 220.325 51.3926 220.325 51.3926ZM227.199 24.7322C227.115 23.0322 227.606 21.3484 228.611 19.8939C229.616 18.4393 231.09 17.2794 232.845 16.5606C234.601 15.8418 236.56 15.5966 238.474 15.8559C240.388 16.1152 242.171 16.8673 243.599 18.0173C245.027 19.1672 246.034 20.6632 246.494 22.3162C246.953 23.9692 246.845 25.7048 246.182 27.3037C245.519 28.9025 244.332 30.2927 242.769 31.2985C241.207 32.3042 239.341 32.8804 237.406 32.9541C234.811 33.0523 232.279 32.2414 230.365 30.6996C228.451 29.1579 227.312 27.0114 227.199 24.7322Z" fill="url(#paint5_linear)"/>
<path d="M254.698 34.5631C254.442 34.553 254.192 34.4987 253.96 34.4032C253.729 34.3078 253.521 34.1731 253.349 34.007C253.177 33.8408 253.044 33.6465 252.958 33.4351C252.872 33.2237 252.834 32.9994 252.847 32.7751L253.126 27.72C253.138 27.4961 253.2 27.2766 253.309 27.0738C253.418 26.8711 253.571 26.6892 253.76 26.5385C253.949 26.3878 254.17 26.2713 254.41 26.1956C254.65 26.1198 254.905 26.0864 255.16 26.0972C255.414 26.108 255.664 26.1627 255.895 26.2584C256.126 26.354 256.333 26.4886 256.504 26.6546C256.676 26.8205 256.809 27.0145 256.895 27.2255C256.981 27.4364 257.019 27.6602 257.007 27.8841L256.73 32.9392C256.718 33.1633 256.656 33.3832 256.547 33.5863C256.439 33.7893 256.285 33.9715 256.096 34.1224C255.907 34.2733 255.686 34.3898 255.446 34.4655C255.205 34.5411 254.95 34.5743 254.695 34.5631H254.698ZM255.238 24.6576C254.983 24.6472 254.733 24.5927 254.502 24.4971C254.271 24.4016 254.063 24.2669 253.892 24.1008C253.72 23.9347 253.587 23.7404 253.501 23.5291C253.415 23.3178 253.377 23.0937 253.39 22.8696L253.601 19.0336C253.734 16.6688 252.931 14.3366 251.329 12.433C249.726 10.5294 247.423 9.17192 244.811 8.59101C240.553 7.65643 236.099 7.66522 231.846 8.61658C231.598 8.67144 231.341 8.6828 231.088 8.65001C230.835 8.61721 230.593 8.54091 230.374 8.42548C230.155 8.31005 229.964 8.15776 229.812 7.97734C229.66 7.79693 229.55 7.59194 229.488 7.37414C229.368 6.93495 229.449 6.47183 229.712 6.08416C229.976 5.69649 230.403 5.41516 230.9 5.30055C235.771 4.21207 240.873 4.20255 245.75 5.27284C249.233 6.04673 252.305 7.8554 254.445 10.3922C256.584 12.9289 257.659 16.0377 257.487 19.1913L257.276 23.0273C257.264 23.2518 257.202 23.4721 257.094 23.6756C256.985 23.879 256.831 24.0615 256.642 24.2127C256.453 24.3638 256.231 24.4805 255.99 24.5561C255.749 24.6318 255.494 24.6648 255.238 24.6533V24.6576Z" fill="white"/>
<path d="M313.959 65.2364L313.176 49.3403C313.112 48.0393 312.751 46.7629 312.114 45.5871C311.477 44.4113 310.577 43.3602 309.468 42.4962C308.359 41.6322 307.063 40.9731 305.659 40.5581C304.254 40.1431 302.768 39.9807 301.29 40.0806L176.72 48.5816C174.053 48.7638 171.558 49.8135 169.725 51.5256C167.892 53.2376 166.851 55.4889 166.807 57.8393L166.516 73.1536L313.959 65.2364Z" fill="url(#paint6_linear)"/>
<path d="M271.854 47.2092L266.491 47.4223C266.239 47.4297 265.994 47.3498 265.809 47.2C265.624 47.0501 265.514 46.8423 265.502 46.6215C265.49 46.4006 265.577 46.1844 265.745 46.0197C265.913 45.8549 266.147 45.7547 266.399 45.7408L271.761 45.5277C272.013 45.5203 272.258 45.6002 272.443 45.75C272.628 45.8999 272.738 46.1077 272.75 46.3286C272.763 46.5494 272.675 46.7656 272.507 46.9304C272.34 47.0952 272.105 47.1953 271.854 47.2092Z" fill="white"/>
<path d="M307.667 61.2491C308.036 61.115 308.348 60.8846 308.562 60.5891C308.776 60.2936 308.881 59.9473 308.863 59.5974L308.548 53.1657C308.418 50.5438 307.108 48.0747 304.906 46.3008C302.705 44.527 299.792 43.5935 296.808 43.7056L277.083 44.4579C276.828 44.4677 276.578 44.5215 276.347 44.6162C276.116 44.7109 275.908 44.8448 275.736 45.01C275.564 45.1752 275.43 45.3687 275.343 45.5793C275.256 45.7899 275.217 46.0135 275.228 46.2374C275.239 46.4613 275.3 46.681 275.408 46.8841C275.516 47.0872 275.668 47.2697 275.856 47.4211C276.044 47.5725 276.264 47.6898 276.504 47.7665C276.744 47.8431 276.998 47.8775 277.253 47.8677L296.975 47.1154C298.929 47.045 300.834 47.6581 302.273 48.8203C303.712 49.9826 304.568 51.599 304.652 53.3149L304.97 59.7445C304.98 59.969 305.041 60.1895 305.149 60.3934C305.256 60.5972 305.409 60.7803 305.597 60.9322C305.786 61.0841 306.006 61.2018 306.247 61.2785C306.487 61.3552 306.742 61.3894 306.998 61.3791C307.228 61.3702 307.455 61.3262 307.667 61.2491Z" fill="white"/>
<path d="M352.759 57.933L134.619 66.2231C130.819 66.3681 127.199 67.6877 124.397 69.9492C121.596 72.2106 119.794 75.2686 119.309 78.5837L119.171 79.5277C118.913 81.2881 119.096 83.0768 119.707 84.7686C120.318 86.4603 121.343 88.0142 122.709 89.3214C124.076 90.6287 125.751 91.6576 127.618 92.3363C129.484 93.0149 131.497 93.3268 133.516 93.2501L357.314 84.7384C358.533 84.692 359.728 84.4288 360.828 83.9647C361.927 83.5005 362.908 82.8451 363.71 82.0381C364.513 81.2311 365.121 80.2894 365.497 79.2699C365.873 78.2505 366.01 77.1745 365.898 76.1073L364.984 67.3249C364.71 64.6792 363.287 62.2277 361.011 60.479C358.735 58.7303 355.78 57.8186 352.759 57.933Z" fill="url(#paint7_linear)"/>
<g opacity="0.61">
<path opacity="0.61" d="M256.347 479.986L434.241 477.944C437.758 477.904 440.376 475.824 440.085 473.305L440.031 472.825C439.74 470.311 436.662 468.31 433.155 468.35L255.864 470.445C252.403 470.488 249.696 472.544 249.815 475.042L249.839 475.519C249.96 478.025 252.873 480.027 256.347 479.986Z" fill="white"/>
<path opacity="0.61" d="M435.993 493.431L257.125 495.383C253.635 495.422 250.904 497.515 251.027 500.055L251.049 500.541C251.173 503.098 254.113 505.129 257.618 505.093L437.096 503.196C440.647 503.158 443.286 501.046 442.99 498.48L442.932 497.992C442.639 495.432 439.529 493.393 435.993 493.431Z" fill="white"/>
<path opacity="0.61" d="M255.076 428.713L432.97 426.672C436.49 426.631 439.107 424.54 438.816 422.032L438.76 421.553C438.469 419.038 435.391 417.037 431.886 417.077L254.593 419.172C251.132 419.215 248.425 421.269 248.546 423.769L248.568 424.246C248.689 426.752 251.603 428.754 255.076 428.713Z" fill="white"/>
<path opacity="0.61" d="M434.722 442.158L255.855 444.119C252.364 444.157 249.633 446.25 249.757 448.79L249.781 449.276C249.905 451.834 252.844 453.865 256.347 453.828L435.825 451.932C439.376 451.893 442.015 449.781 441.72 447.216L441.664 446.728C441.368 444.16 438.261 442.12 434.722 442.158Z" fill="white"/>
</g>
<path d="M291.513 118.958C291.549 121.635 289.968 123.838 287.979 123.879L92.2855 127.943C90.1025 127.99 88.2736 125.748 88.213 122.937V122.511C88.1523 119.697 89.8818 117.396 92.0696 117.347L287.845 113.769C289.837 113.732 291.484 115.872 291.515 118.551L291.513 118.958Z" fill="white"/>
<path d="M407.102 142.65C407.14 145.322 404.627 147.551 401.489 147.605L92.8434 153.904C89.3918 153.974 86.5369 151.758 86.4593 148.951V148.525C86.3865 145.718 89.1274 143.389 92.5815 143.325L401.358 137.509C404.499 137.45 407.07 139.57 407.109 142.243L407.102 142.65Z" fill="white"/>
<path d="M191.766 270.166C191.766 270.166 193.663 264.552 198.072 263.985C202.482 263.419 206.263 262.839 207.532 266.756C208.801 270.673 207.532 275.14 199.346 275.745C191.159 276.35 191.766 270.166 191.766 270.166Z" fill="white"/>
<path d="M199.976 251.099C199.976 251.099 204.386 249.415 205.645 252.769C206.904 256.124 206.904 260.032 202.492 262.283C198.08 264.533 193.032 263.988 191.761 258.954C190.49 253.92 196.19 251.663 199.976 251.099Z" fill="white"/>
<path d="M188.6 248.307C187.351 246.47 186.066 241.574 189.867 239.333C194.832 236.409 197.451 235.422 199.976 237.666C202.501 239.91 205.349 246.284 201.235 249.417C196.821 252.782 191.409 252.437 188.6 248.307Z" fill="white"/>
<path d="M189.134 237.513C188.609 237.583 188.073 237.554 187.561 237.428C187.05 237.302 186.574 237.082 186.168 236.782C185.489 236.277 185.009 235.597 184.797 234.838C184.164 232.59 188.6 228.675 192.399 227.567C196.197 226.458 200.529 230.337 197.451 233.747C195.13 236.313 193.34 236.99 189.134 237.513Z" fill="white"/>
<path d="M180.989 228.662C180.989 228.662 179.082 224.721 181.624 221.923C184.166 219.125 186.066 217.448 189.234 218.592C192.401 219.737 195.557 223.667 191.766 226.454C187.975 229.242 183.529 231.466 180.989 228.662Z" fill="white"/>
<path d="M176.897 221.397C176.552 221.318 176.233 221.168 175.967 220.959C175.701 220.751 175.495 220.489 175.366 220.197C174.899 219.19 174.703 218.101 174.792 217.016C174.882 215.93 175.255 214.878 175.883 213.94C178.379 210.104 179.628 208.998 182.745 210.673C185.862 212.348 187.111 214.008 186.483 215.656C185.855 217.303 182.745 220.046 180.875 221.139C179.679 221.842 177.974 221.629 176.897 221.397Z" fill="white"/>
<path d="M168.509 206.147C168.509 206.147 169.839 203.229 173.819 205.601C177.799 207.973 179.114 208.565 177.792 210.311C176.47 212.056 173.819 216.137 169.839 215.53C165.858 214.923 165.853 209.644 168.509 206.147Z" fill="white"/>
<path d="M159.942 212.791C158.021 212.791 157.381 211.647 156.74 209.382C156.1 207.116 156.098 202.605 156.74 201.482C157.383 200.358 159.942 200.945 162.504 201.531C165.065 202.117 167.607 202.703 167.607 203.83C167.607 204.957 166.464 212.832 159.942 212.791Z" fill="white"/>
<path d="M120.534 270.505C120.534 270.505 118.593 264.829 114.026 264.277C109.459 263.725 105.536 263.169 104.234 267.163C102.931 271.157 104.234 275.713 112.723 276.233C121.213 276.753 120.534 270.505 120.534 270.505Z" fill="white"/>
<path d="M112.061 251.194C112.061 251.194 107.492 249.489 106.184 252.899C104.877 256.309 104.877 260.311 109.451 262.575C114.026 264.838 119.224 264.247 120.524 259.131C121.824 254.014 115.981 251.759 112.061 251.194Z" fill="white"/>
<path d="M123.782 248.343C125.062 246.482 126.377 241.523 122.484 239.256C117.39 236.272 114.678 235.264 112.071 237.536C109.463 239.808 106.492 246.301 110.766 249.487C115.329 252.897 120.9 252.531 123.782 248.343Z" fill="white"/>
<path d="M123.234 237.412C123.77 237.486 124.318 237.459 124.842 237.333C125.365 237.207 125.853 236.986 126.273 236.683C126.966 236.177 127.457 235.489 127.675 234.721C128.322 232.453 123.782 228.468 119.884 227.317C115.986 226.166 111.496 230.088 114.679 233.557C117.073 236.176 118.914 236.871 123.234 237.412Z" fill="white"/>
<path d="M131.56 228.492C131.56 228.492 133.501 224.53 130.913 221.685C128.325 218.84 126.377 217.124 123.132 218.243C119.886 219.362 116.631 223.326 120.534 226.184C124.437 229.041 128.97 231.32 131.56 228.492Z" fill="white"/>
<path d="M135.725 221.203C136.074 221.127 136.397 220.979 136.667 220.772C136.938 220.564 137.148 220.303 137.28 220.01C137.753 218.994 137.952 217.895 137.861 216.8C137.77 215.706 137.392 214.644 136.756 213.699C134.217 209.791 132.948 208.668 129.77 210.317C126.593 211.967 125.315 213.631 125.953 215.306C126.591 216.981 129.77 219.782 131.677 220.905C132.895 221.629 134.631 221.437 135.725 221.203Z" fill="white"/>
<path d="M144.217 205.966C144.217 205.966 142.876 203.01 138.849 205.326C134.823 207.643 133.469 208.235 134.816 210.015C136.162 211.794 138.849 215.935 142.876 215.368C146.902 214.801 146.897 209.514 144.217 205.966Z" fill="white"/>
<path d="M152.835 212.747C154.761 212.76 155.404 211.634 156.044 209.382C156.685 207.129 156.685 202.613 156.044 201.48C155.404 200.346 152.835 200.889 150.266 201.43C147.698 201.972 145.119 202.52 145.119 203.651C145.119 204.783 146.279 212.706 152.835 212.747Z" fill="white"/>
<path d="M191.766 286.931C191.766 286.931 193.663 292.519 198.072 293.039C202.482 293.559 206.263 294.081 207.532 290.158C208.801 286.234 207.532 281.776 199.346 281.273C191.159 280.77 191.766 286.931 191.766 286.931Z" fill="white"/>
<path d="M199.976 305.894C199.976 305.894 204.386 307.52 205.645 304.151C206.904 300.781 206.904 296.871 202.492 294.676C198.08 292.481 193.032 293.086 191.761 298.141C190.49 303.196 196.19 305.383 199.976 305.894Z" fill="white"/>
<path d="M188.6 308.831C187.351 310.685 186.066 315.595 189.867 317.781C194.832 320.644 197.451 321.594 199.976 319.318C202.501 317.042 205.349 310.632 201.235 307.552C196.821 304.251 191.409 304.664 188.6 308.831Z" fill="white"/>
<path d="M189.134 319.616C188.606 319.554 188.068 319.59 187.557 319.723C187.046 319.855 186.572 320.081 186.168 320.386C185.49 320.899 185.011 321.585 184.797 322.348C184.164 324.603 188.6 328.463 192.399 329.522C196.197 330.581 200.529 326.647 197.442 323.284C195.13 320.742 193.34 320.087 189.134 319.616Z" fill="white"/>
<path d="M180.989 328.584C180.989 328.584 179.082 332.548 181.624 335.312C184.166 338.076 186.066 339.726 189.234 338.547C192.401 337.369 195.557 333.392 191.766 330.662C187.975 327.932 183.529 325.735 180.989 328.584Z" fill="white"/>
<path d="M176.897 335.89C176.551 335.974 176.233 336.128 175.967 336.339C175.701 336.551 175.495 336.814 175.367 337.109C174.899 338.115 174.703 339.203 174.793 340.287C174.882 341.371 175.255 342.423 175.883 343.359C178.379 347.174 179.628 348.261 182.745 346.537C185.862 344.813 187.111 343.148 186.483 341.507C185.855 339.866 182.745 337.166 180.875 336.096C179.679 335.412 177.974 335.645 176.897 335.89Z" fill="white"/>
<path d="M168.509 351.247C168.509 351.247 169.839 354.147 173.819 351.724C177.799 349.301 179.114 348.691 177.792 346.963C176.47 345.235 173.819 341.188 169.839 341.848C165.858 342.509 165.853 347.792 168.509 351.247Z" fill="white"/>
<path d="M159.942 344.71C158.021 344.747 157.381 345.887 156.74 348.156C156.1 350.426 156.098 354.942 156.74 356.059C157.383 357.175 159.942 356.553 162.503 355.935C165.065 355.317 167.617 354.701 167.617 353.576C167.617 352.451 166.464 344.595 159.942 344.71Z" fill="white"/>
<path d="M120.534 287.5C120.534 287.5 118.593 293.201 114.026 293.811C109.459 294.42 105.536 295.027 104.234 291.04C102.931 287.053 104.234 282.49 112.723 281.861C121.213 281.233 120.534 287.5 120.534 287.5Z" fill="white"/>
<path d="M112.061 306.919C112.061 306.919 107.492 308.682 106.184 305.278C104.877 301.875 104.877 297.883 109.451 295.56C114.026 293.237 119.224 293.764 120.524 298.866C121.824 303.968 115.981 306.303 112.061 306.919Z" fill="white"/>
<path d="M123.782 309.621C125.062 311.465 126.377 316.4 122.484 318.726C117.39 321.771 114.678 322.815 112.071 320.577C109.463 318.34 106.492 311.883 110.766 308.643C115.329 305.17 120.9 305.47 123.782 309.621Z" fill="white"/>
<path d="M123.234 320.558C123.767 320.477 124.314 320.497 124.838 320.616C125.362 320.735 125.851 320.951 126.273 321.249C126.966 321.747 127.458 322.429 127.675 323.192C128.322 325.454 123.782 329.496 119.884 330.696C115.986 331.896 111.496 328.041 114.679 324.516C117.073 321.873 118.914 321.153 123.234 320.558Z" fill="white"/>
<path d="M131.56 329.373C131.56 329.373 133.501 333.309 130.913 336.192C128.325 339.076 126.377 340.81 123.132 339.734C119.886 338.658 116.631 334.733 120.534 331.826C124.437 328.919 128.97 326.577 131.56 329.373Z" fill="white"/>
<path d="M135.725 336.606C136.074 336.674 136.399 336.817 136.671 337.021C136.943 337.225 137.155 337.484 137.287 337.776C137.76 338.793 137.959 339.892 137.868 340.988C137.777 342.084 137.399 343.146 136.763 344.092C134.224 348.035 132.955 349.173 129.778 347.564C126.6 345.955 125.322 344.308 125.96 342.624C126.598 340.94 129.778 338.098 131.684 336.951C132.894 336.22 134.631 336.388 135.725 336.606Z" fill="white"/>
<path d="M144.217 351.739C144.217 351.739 142.876 354.71 138.849 352.436C134.823 350.162 133.469 349.597 134.816 347.801C136.162 346.004 138.849 341.833 142.876 342.345C146.902 342.856 146.897 348.154 144.217 351.739Z" fill="white"/>
<path d="M152.835 344.845C154.761 344.808 155.404 345.925 156.044 348.171C156.685 350.418 156.685 354.931 156.044 356.072C155.404 357.212 152.835 356.711 150.266 356.195C147.698 355.679 145.119 355.172 145.119 354.041C145.119 352.909 146.279 344.97 152.835 344.845Z" fill="white"/>
<path opacity="0.86" d="M93.8209 372.594C91.5084 372.59 89.2923 371.779 87.6589 370.341C86.0255 368.903 85.1082 366.954 85.1082 364.922V189.466C85.1137 187.819 85.8276 186.234 87.1069 185.029C88.3862 183.825 90.1363 183.089 92.0066 182.971H92.0405L216.543 179.951C218.206 179.911 219.862 180.164 221.412 180.695C222.963 181.227 224.376 182.025 225.569 183.045C226.762 184.064 227.71 185.283 228.358 186.63C229.006 187.976 229.34 189.424 229.34 190.886L229.433 355.622C229.452 359.11 227.919 362.466 225.161 364.974C222.403 367.483 218.638 368.945 214.671 369.048L94.1192 372.607C94.0222 372.594 93.9228 372.594 93.8209 372.594ZM92.1036 184.415C90.649 184.511 89.2892 185.086 88.2955 186.024C87.3019 186.962 86.7475 188.195 86.7431 189.477V364.941C86.7432 365.777 86.9345 366.603 87.3058 367.372C87.677 368.142 88.2205 368.837 88.9039 369.418C89.5873 369.999 90.3967 370.453 91.2839 370.753C92.1711 371.053 93.118 371.194 94.0683 371.166L214.62 367.607C218.162 367.516 221.524 366.211 223.987 363.972C226.45 361.732 227.819 358.736 227.803 355.622L227.71 190.886C227.71 189.615 227.419 188.358 226.856 187.188C226.293 186.019 225.469 184.96 224.433 184.074C223.396 183.189 222.169 182.495 220.822 182.033C219.475 181.572 218.037 181.352 216.592 181.387L92.1036 184.415Z" fill="white"/>
<g opacity="0.9">
<path opacity="0.9" d="M251.105 261.741L407.334 260.036C410.425 260.002 412.717 257.929 412.457 255.41L412.406 254.928C412.144 252.413 409.437 250.406 406.357 250.44L250.656 252.192C247.617 252.228 245.245 254.278 245.357 256.778L245.378 257.255C245.49 259.776 248.054 261.775 251.105 261.741Z" fill="white"/>
<path opacity="0.9" d="M408.911 275.534L251.828 277.141C248.762 277.173 246.368 279.257 246.492 281.802L246.513 282.285C246.63 284.843 249.216 286.88 252.294 286.85L409.915 285.301C413.034 285.271 415.346 283.17 415.079 280.598L415.028 280.11C414.754 277.548 412.018 275.502 408.911 275.534Z" fill="white"/>
<path opacity="0.9" d="M251.612 316.443L407.841 314.738C410.931 314.704 413.224 312.631 412.964 310.109L412.913 309.63C412.651 307.113 409.944 305.106 406.864 305.142L251.163 306.894C248.124 306.928 245.752 308.978 245.863 311.478L245.885 311.955C245.997 314.468 248.561 316.475 251.612 316.443Z" fill="white"/>
<path opacity="0.9" d="M409.418 330.236L252.335 331.841C249.269 331.873 246.875 333.957 246.999 336.501L247.02 336.987C247.137 339.545 249.723 341.58 252.801 341.55L410.422 340.003C413.541 339.971 415.853 337.872 415.586 335.297L415.535 334.809C415.259 332.25 412.525 330.204 409.418 330.236Z" fill="white"/>
<path opacity="0.9" d="M249.861 210.469L406.09 208.764C409.18 208.73 411.475 206.656 411.213 204.135L411.162 203.655C410.902 201.141 408.193 199.133 405.112 199.167L249.412 200.919C246.373 200.953 244.001 203.005 244.112 205.505L244.134 205.98C244.255 208.495 246.809 210.503 249.861 210.469Z" fill="white"/>
<path opacity="0.9" d="M407.667 224.261L250.584 225.868C247.518 225.9 245.124 227.984 245.247 230.527L245.269 231.013C245.386 233.57 247.971 235.607 251.049 235.578L408.671 234.028C411.79 233.998 414.102 231.897 413.835 229.325L413.784 228.835C413.51 226.275 410.774 224.229 407.667 224.261Z" fill="white"/>
</g>
<path d="M563.219 582.25H145.731C139.281 582.25 134.052 575.058 134.052 566.184V499.45C134.052 483.573 143.405 470.701 154.943 470.701C191.373 462.845 227.305 463.855 262.695 474.537C305.961 467.385 349.298 467.385 392.706 474.537C439.859 462.423 494.095 463.372 551.802 470.701C561.989 470.701 570.236 482.066 570.236 496.085V572.592C570.253 577.924 567.1 582.25 563.219 582.25Z" fill="url(#paint8_linear)"/>
<path d="M272.945 454.016C272.945 454.016 274.291 540.271 253.055 546.95C251.321 547.496 249.798 547.492 248.447 547.031C233.316 541.887 240.653 478.654 220.528 474.375H198.742C176.832 479.01 187.477 553.619 166.239 546.946C164.987 546.535 163.841 545.906 162.87 545.098C162.8 545.041 162.724 544.983 162.654 544.924C145.146 530.234 146.34 454.008 146.34 454.008C128.08 428.136 132.773 393.057 132.773 393.057C131.109 371.362 161.395 353.205 179 362.67C189.801 368.477 201.9 370.868 209.645 371.855C216.051 371.038 225.435 369.261 234.602 365.385C236.552 364.566 238.452 363.659 240.297 362.67C257.89 353.214 288.188 371.362 286.524 393.057C286.514 393.053 291.202 428.146 272.945 454.016Z" fill="white"/>
<path opacity="0.2" d="M272.945 454.016C272.945 454.016 274.291 540.271 253.055 546.95C251.321 547.496 249.798 547.496 248.447 547.036C265.557 534.379 255.481 468.446 250.487 459.956C245.458 451.386 259.818 435.605 265.739 405.399C271.66 375.192 234.592 365.387 234.592 365.387C236.542 364.568 238.443 363.662 240.287 362.672C257.88 353.216 288.178 371.364 286.514 393.059C286.514 393.053 291.202 428.146 272.945 454.016Z" fill="url(#paint9_linear)"/>
<path opacity="0.3" d="M203.484 474.381H198.742C176.831 479.016 187.477 553.625 166.239 546.952C164.986 546.541 163.841 545.913 162.87 545.105C180.373 551.185 178.735 491.219 181.61 481.299C184.484 471.378 203.484 474.381 203.484 474.381Z" fill="url(#paint10_linear)"/>
<path d="M414.531 457.501C414.531 457.501 415.877 543.756 394.641 550.435C392.907 550.98 391.384 550.974 390.033 550.516C374.902 545.369 382.239 482.139 362.114 477.859H340.328C318.417 482.494 329.063 557.103 307.825 550.428C306.572 550.019 305.426 549.391 304.456 548.583C304.385 548.523 304.31 548.468 304.24 548.408C286.732 533.716 287.925 457.49 287.925 457.49C269.666 431.62 274.359 396.539 274.359 396.539C272.695 374.845 302.981 356.687 320.586 366.15C331.387 371.959 343.486 374.348 351.231 375.337C357.637 374.521 367.021 372.743 376.187 368.865C378.138 368.047 380.039 367.14 381.883 366.15C399.475 356.694 429.773 374.845 428.109 396.539C428.1 396.537 432.788 431.629 414.531 457.501Z" fill="white"/>
<path opacity="0.2" d="M414.531 457.5C414.531 457.5 415.877 543.756 394.642 550.435C392.907 550.98 391.384 550.98 390.033 550.52C407.143 537.861 397.067 471.93 392.073 463.438C387.045 454.871 401.404 439.087 407.325 408.881C413.246 378.674 376.178 368.869 376.178 368.869C378.128 368.051 380.029 367.145 381.873 366.154C399.466 356.698 429.764 374.849 428.1 396.544C428.1 396.537 432.789 431.629 414.531 457.5Z" fill="url(#paint11_linear)"/>
<path opacity="0.3" d="M345.07 477.859H340.328C318.417 482.494 329.063 557.103 307.825 550.428C306.572 550.018 305.426 549.391 304.456 548.583C321.959 554.661 320.322 494.697 323.196 484.775C326.07 474.852 345.07 477.859 345.07 477.859Z" fill="url(#paint12_linear)"/>
<path d="M556.144 454.016C556.144 454.016 557.488 540.271 536.254 546.95C534.522 547.496 532.999 547.492 531.645 547.031C516.517 541.887 523.852 478.654 503.729 474.375H481.943C460.03 479.01 470.676 553.619 449.428 546.946C448.176 546.534 447.03 545.906 446.059 545.098C445.988 545.041 445.913 544.983 445.843 544.924C428.335 530.234 429.531 454.008 429.531 454.008C411.269 428.136 415.962 393.057 415.962 393.057C414.298 371.362 444.584 353.205 462.189 362.67C472.992 368.477 485.091 370.868 492.836 371.855C499.24 371.038 508.627 369.261 517.793 365.385C519.742 364.566 521.642 363.659 523.486 362.67C541.081 353.214 571.376 371.362 569.712 393.057C569.71 393.053 574.399 428.146 556.144 454.016Z" fill="white"/>
<path opacity="0.2" d="M556.144 454.016C556.144 454.016 557.488 540.271 536.254 546.95C534.522 547.496 532.999 547.496 531.645 547.036C548.756 534.379 538.68 468.446 533.685 459.956C528.66 451.388 543.019 435.605 548.937 405.399C554.856 375.192 517.793 365.387 517.793 365.387C519.742 364.568 521.642 363.662 523.486 362.672C541.081 353.216 571.376 371.364 569.713 393.059C569.71 393.053 574.399 428.146 556.144 454.016Z" fill="url(#paint13_linear)"/>
<path opacity="0.3" d="M486.68 474.381H481.94C460.028 479.016 470.673 553.625 449.425 546.952C448.173 546.54 447.028 545.912 446.056 545.105C463.559 551.185 461.924 491.219 464.796 481.299C467.668 471.378 486.68 474.381 486.68 474.381Z" fill="url(#paint14_linear)"/>
<path d="M205.034 411.896L187.22 412.323C181.042 412.476 176.021 416.689 176.021 421.736V444.965C176.021 450.012 181.042 453.931 187.22 453.718L205.034 453.108C211.144 452.895 216.082 448.678 216.082 443.678V420.677C216.082 415.679 211.144 411.747 205.034 411.896Z" fill="url(#paint15_linear)"/>
<path d="M201.982 420.332L190.294 420.641C186.932 420.73 184.201 423.03 184.201 425.779V440.46C184.201 443.209 186.932 445.347 190.294 445.238L201.982 444.861C205.323 444.754 208.025 442.451 208.025 439.721V425.118C208.025 422.382 205.323 420.251 201.982 420.332Z" fill="url(#paint16_linear)"/>
<path d="M350.806 408.316L334.201 408.723C328.443 408.866 323.771 412.928 323.771 417.8V440.221C323.771 445.093 328.45 448.88 334.201 448.684L350.806 448.115C356.502 447.919 361.105 443.853 361.105 439.022V416.811C361.105 411.984 356.502 408.184 350.806 408.316Z" fill="url(#paint17_linear)"/>
<path d="M347.959 416.463L337.065 416.753C333.931 416.836 331.387 419.053 331.387 421.706V435.88C331.387 438.531 333.931 440.601 337.065 440.498L347.959 440.147C351.073 440.047 353.593 437.826 353.593 435.19V421.09C353.593 418.454 351.073 416.38 347.959 416.463Z" fill="url(#paint18_linear)"/>
<path d="M480.9 405.132L465.34 405.514C459.945 405.648 455.562 409.576 455.562 414.292V435.993C455.557 437.105 455.81 438.206 456.305 439.228C456.8 440.251 457.527 441.175 458.443 441.942C459.358 442.71 460.441 443.306 461.627 443.693C462.813 444.081 464.076 444.252 465.34 444.196L480.9 443.661C483.484 443.56 485.926 442.592 487.722 440.956C489.518 439.321 490.533 437.143 490.556 434.87V413.358C490.562 412.255 490.314 411.161 489.827 410.144C489.34 409.126 488.625 408.206 487.723 407.438C486.821 406.669 485.752 406.069 484.579 405.673C483.407 405.277 482.155 405.093 480.9 405.132Z" fill="url(#paint19_linear)"/>
<path d="M478.234 413.005L468.025 413.275C466.606 413.317 465.26 413.839 464.268 414.731C463.277 415.624 462.716 416.819 462.703 418.066V431.786C462.7 432.392 462.838 432.991 463.107 433.549C463.377 434.106 463.772 434.609 464.27 435.028C464.768 435.447 465.358 435.772 466.003 435.984C466.649 436.196 467.336 436.291 468.025 436.262L478.234 435.931C479.646 435.879 480.981 435.352 481.963 434.46C482.945 433.567 483.5 432.378 483.512 431.136V417.497C483.515 416.894 483.379 416.297 483.113 415.741C482.847 415.185 482.456 414.682 481.963 414.263C481.47 413.843 480.885 413.515 480.245 413.299C479.604 413.083 478.92 412.983 478.234 413.005Z" fill="url(#paint20_linear)"/>
<path d="M208.24 411.896L190.424 412.323C184.247 412.476 179.226 416.689 179.226 421.736V444.965C179.226 450.012 184.247 453.931 190.424 453.718L208.24 453.108C214.348 452.895 219.286 448.678 219.286 443.678V420.677C219.286 415.679 214.348 411.747 208.24 411.896Z" fill="url(#paint21_linear)"/>
<path d="M354.01 408.316L337.405 408.723C331.649 408.866 326.975 412.928 326.975 417.8V440.221C326.975 445.093 331.654 448.88 337.405 448.684L354.01 448.115C359.706 447.919 364.309 443.853 364.309 439.022V416.811C364.322 411.984 359.713 408.184 354.01 408.316Z" fill="url(#paint22_linear)"/>
<path d="M484.106 405.132L468.544 405.514C463.149 405.648 458.766 409.576 458.766 414.292V435.993C458.761 437.105 459.014 438.206 459.509 439.229C460.004 440.252 460.732 441.175 461.647 441.943C462.562 442.71 463.645 443.306 464.831 443.694C466.017 444.081 467.28 444.252 468.544 444.196L484.106 443.661C486.69 443.56 489.132 442.592 490.928 440.956C492.723 439.321 493.737 437.143 493.76 434.87V413.359C493.766 412.255 493.518 411.162 493.032 410.145C492.545 409.127 491.829 408.207 490.928 407.439C490.026 406.67 488.957 406.07 487.785 405.674C486.613 405.277 485.361 405.093 484.106 405.132Z" fill="url(#paint23_linear)"/>
<path d="M199.406 435.446L199.229 430.118C200.719 430.079 349.525 426.252 476.197 421.972L476.439 427.3C349.729 431.58 200.896 435.409 199.406 435.446Z" fill="url(#paint24_linear)"/>
<path d="M205.187 420.332L193.5 420.641C190.136 420.73 187.407 423.03 187.407 425.779V440.46C187.407 443.209 190.136 445.347 193.5 445.238L205.187 444.861C208.527 444.754 211.229 442.451 211.229 439.721V425.118C211.229 422.382 208.527 420.251 205.187 420.332Z" fill="url(#paint25_linear)"/>
<path d="M351.165 416.463L340.272 416.753C337.136 416.836 334.591 419.053 334.591 421.706V435.88C334.591 438.531 337.136 440.601 340.272 440.498L351.165 440.147C354.277 440.047 356.797 437.826 356.797 435.19V421.09C356.802 418.454 354.277 416.38 351.165 416.463Z" fill="url(#paint26_linear)"/>
<path d="M481.438 413.005L471.229 413.275C469.81 413.317 468.465 413.839 467.474 414.731C466.482 415.624 465.922 416.819 465.91 418.066V431.786C465.907 432.392 466.044 432.991 466.313 433.549C466.582 434.106 466.978 434.609 467.475 435.028C467.973 435.447 468.562 435.772 469.208 435.984C469.853 436.196 470.541 436.291 471.229 436.262L481.438 435.931C482.85 435.879 484.185 435.352 485.168 434.46C486.151 433.568 486.706 432.378 486.719 431.136V417.497C486.722 416.894 486.586 416.296 486.32 415.74C486.053 415.184 485.662 414.682 485.168 414.262C484.675 413.842 484.09 413.515 483.449 413.299C482.808 413.082 482.124 412.983 481.438 413.005Z" fill="url(#paint27_linear)"/>
<path d="M525.407 253.223C525.457 253.258 525.499 253.299 525.533 253.347L526.071 253.366C526.13 253.439 526.712 253.56 526.712 253.703L526.197 253.856C526.197 254.008 525.955 254.201 526.006 254.415L525.885 254.506C526.488 257.643 529.765 266.227 533.343 277.343C533.377 277.435 533.367 277.535 533.404 277.629C541.437 302.563 553.036 340.09 556.537 357.465C556.537 357.465 562.734 360.168 572.38 361.514H572.402C586.337 364.191 607.367 366.642 626.934 362.139C626.934 362.139 637.449 286.729 624.708 221.38C624.708 221.38 591.288 214.057 555.21 212.063C555.025 212.063 554.839 212.619 554.654 212.608C551.744 212.465 548.833 212.951 545.903 212.951H542.563C541.069 212.951 538.367 213.414 535.213 214.586C535.121 214.616 534.934 214.328 534.934 214.373C534.929 214.292 534.918 214.211 534.9 214.132L534.112 214.437C533.753 214.569 533.384 214.703 532.999 214.863C532.92 214.901 532.839 214.936 532.756 214.965C532.722 214.987 532.676 214.991 532.64 215.012C532.397 215.123 532.143 215.234 531.876 215.345L531.725 215.404C531.422 215.536 531.121 215.679 530.808 215.83C530.762 215.852 531.005 215.871 530.959 215.901C530.6 216.065 530.137 216.238 529.765 216.41C529.394 216.583 529.174 216.726 529.152 216.9L529.106 216.634C528.931 216.717 528.744 216.809 528.572 216.9C528.555 216.904 528.54 216.91 528.526 216.919C526.527 217.933 524.633 219.099 522.867 220.404C522.867 220.404 522.867 220.423 522.845 220.434L522.763 220.536C514.671 232.323 510.916 251.646 525.407 253.223Z" fill="url(#paint28_linear)"/>
<path d="M440.982 272.776C477.342 269.394 494.41 244.784 507.928 229.133C525.768 208.461 545.469 212.039 545.469 212.039L533.411 257.645C506.434 295.413 467.848 297.21 441.909 292.892C439.674 286.363 439.356 279.443 440.982 272.776Z" fill="#6D89D0"/>
<path d="M386.368 265.663L399.597 268.499C415.72 272.761 429.337 273.855 440.982 272.761C439.357 279.424 439.675 286.34 441.906 292.867C425.393 290.119 414.012 284.896 414.012 284.896C383.639 277.139 386.368 265.663 386.368 265.663Z" fill="#6D89D0"/>
<path d="M356.431 287.841C356.481 286.676 356.829 285.536 357.449 284.506C358.069 283.475 358.944 282.58 360.011 281.887L381.114 268.186C381.114 268.186 380.684 265.45 374.807 264.866C368.93 264.282 368.634 258.747 368.634 258.747C368.634 258.747 376.784 260.005 388.817 262.197C395.699 263.453 400.506 267.346 403.371 270.451L399.381 278.842C385.999 285.989 371.528 290.077 356.264 291.942L356.431 287.841Z" fill="url(#paint29_linear)"/>
<path d="M542.204 211.791C542.333 211.78 542.447 211.78 542.563 211.78C542.599 211.78 542.621 211.78 542.655 211.76L542.204 211.791Z" fill="url(#paint30_linear)"/>
<path d="M534.888 211.445L534.934 211.465V211.423C534.929 211.43 534.923 211.436 534.914 211.44C534.906 211.444 534.897 211.445 534.888 211.445Z" fill="url(#paint31_linear)"/>
<path d="M556.212 567.085C556.212 567.085 558.099 576.473 559.025 585.767C559.11 586.629 558.994 587.497 558.685 588.318C558.377 589.14 557.882 589.898 557.23 590.546C556.578 591.195 555.783 591.721 554.894 592.091C554.004 592.462 553.038 592.67 552.054 592.704C537.966 593.219 507.836 594.221 497.025 593.797C496.648 593.781 496.28 593.686 495.953 593.52C495.626 593.354 495.349 593.122 495.145 592.842C494.941 592.563 494.816 592.245 494.78 591.915C494.744 591.584 494.798 591.251 494.939 590.943C495.443 589.831 496.415 588.931 497.653 588.431L547.424 568.332L556.212 567.085Z" fill="url(#paint32_linear)"/>
<path d="M557.757 561.568L556.241 572.797C556.241 572.797 547.523 576.364 541.568 572.349L545.18 559.833L557.757 561.568Z" fill="url(#paint33_linear)"/>
<path d="M556.619 350.449C557.274 353.382 560.134 496.79 542.686 561.054C542.543 561.56 542.612 562.094 542.879 562.56C543.146 563.026 543.594 563.392 544.142 563.592C546.81 564.553 552.064 565.936 558.351 566.13C559.298 566.157 560.228 565.907 560.996 565.419C561.763 564.93 562.324 564.231 562.591 563.432C567.58 548.514 591.477 473.816 594.594 402.451C598.077 322.706 594.594 399.736 594.594 399.736L592.551 350.443L556.619 350.449Z" fill="url(#paint34_linear)"/>
<path d="M613.462 571.987C613.462 571.987 616.468 576.726 619.376 589.319C619.504 589.856 619.503 590.41 619.371 590.947C619.239 591.483 618.98 591.988 618.611 592.431C618.242 592.873 617.771 593.242 617.228 593.514C616.686 593.786 616.085 593.954 615.463 594.008C610.814 594.41 603.653 594.926 597.917 594.892C597.291 594.89 596.673 594.771 596.104 594.544C595.534 594.317 595.026 593.986 594.612 593.574C594.199 593.161 593.889 592.677 593.704 592.152C593.519 591.627 593.463 591.073 593.539 590.528C594.174 585.931 596.153 578.38 602.271 572.511L613.462 571.987Z" fill="url(#paint35_linear)"/>
<path d="M616.097 557.538L612.553 574.521C612.553 574.521 609.05 576.81 602.123 575.16L603.821 556.89L616.097 557.538Z" fill="url(#paint36_linear)"/>
<path d="M625.675 354.85C639.945 430.505 622.58 541.857 616.722 563.65C616.548 564.303 616.159 564.896 615.603 565.355C615.048 565.815 614.35 566.12 613.598 566.233C610.986 566.614 606.681 566.923 602.441 565.841C601.727 565.658 601.097 565.283 600.64 564.769C600.183 564.254 599.921 563.627 599.891 562.974C599.105 545.354 600.52 437.193 587.225 394.447C586.551 392.282 585.045 390.389 582.963 389.089L557.155 372.967L555.178 346.912L625.675 354.85Z" fill="url(#paint37_linear)"/>
<path d="M608.293 257.728L624.695 221.348C624.695 221.348 664.64 245.193 671.208 275.425C663.66 275.913 649.926 277.64 636.484 283.603C633.532 269.326 608.293 257.728 608.293 257.728Z" fill="#6D89D0"/>
<path d="M578.063 180.98L591.671 215.553C591.779 215.829 591.773 216.129 591.655 216.402C591.538 216.674 591.315 216.902 591.026 217.045C587.314 218.846 573.952 224.054 557.849 215.082C557.018 214.625 556.312 214.013 555.781 213.29C555.25 212.566 554.906 211.748 554.775 210.895L550.363 180.98H578.063Z" fill="url(#paint38_linear)"/>
<path d="M603.889 217.457L587.652 205.341L563.362 257.432L581.069 464.465L636.372 465.918C636.565 465.923 636.757 465.894 636.936 465.831C637.115 465.769 637.278 465.675 637.414 465.555C637.55 465.435 637.657 465.292 637.729 465.135C637.8 464.977 637.833 464.809 637.828 464.64L630.107 265.462C630.107 265.462 629.896 222.414 624.688 221.348C619.481 220.282 603.889 217.457 603.889 217.457Z" fill="url(#paint39_linear)"/>
<path d="M526.612 253.366L526.711 253.703L526.197 253.856L526.006 254.415L527.138 254.506L532.805 295.616V295.635L550.865 467.146C550.911 467.493 550.424 467.798 550.725 468.011C551.025 468.224 551.084 468.307 551.467 468.256L581.241 464.467L572.47 361.514L572.419 361.361L563.614 254.751L555.653 211.954V211.933L554.181 205.343L546.012 211.555H545.83L543.494 211.668L542.524 211.709C541.039 212.054 534.944 214.07 534.944 214.07C534.944 214.07 532.814 214.906 531.791 215.334C531.75 215.353 531.71 215.373 531.672 215.396C531.371 215.528 531.085 215.671 530.772 215.822C530.726 215.841 530.995 215.862 530.949 215.892C530.323 216.199 529.748 216.532 529.748 216.892V216.911L526.702 253.221V253.345L526.612 253.366Z" fill="#6D89D0"/>
<path d="M554.13 257.019V262.087L532.805 260.959V255.329L554.13 257.019Z" fill="url(#paint40_linear)"/>
<path d="M564.674 269.431C564.769 269.431 564.863 269.41 564.946 269.369L583.608 260.565C583.688 260.527 583.757 260.474 583.809 260.409C583.86 260.344 583.894 260.269 583.907 260.19L586.466 245.059L593.272 243.993C593.377 243.977 593.475 243.936 593.555 243.874C593.635 243.812 593.694 243.731 593.726 243.642L600.925 223.091C600.968 222.963 600.951 222.824 600.879 222.706C600.806 222.588 600.684 222.5 600.538 222.461C600.392 222.422 600.235 222.435 600.1 222.497C599.965 222.559 599.863 222.665 599.816 222.793L592.721 243.039L585.852 244.104C585.733 244.123 585.623 244.174 585.538 244.251C585.453 244.327 585.398 244.425 585.379 244.53L582.803 259.762L564.398 268.446C564.283 268.499 564.193 268.585 564.14 268.689C564.087 268.794 564.076 268.91 564.108 269.021C564.14 269.131 564.213 269.229 564.316 269.299C564.418 269.368 564.545 269.406 564.674 269.405V269.431Z" fill="url(#paint41_linear)"/>
<path d="M560.24 264.369C560.315 264.369 560.389 264.351 560.454 264.318C560.554 264.267 560.627 264.184 560.658 264.086C560.688 263.989 560.673 263.884 560.616 263.796L550.824 248.714L552.44 240.189C552.455 240.11 552.441 240.029 552.4 239.958C552.36 239.886 552.295 239.828 552.214 239.791L544.336 236.106L546.339 211.585C546.347 211.484 546.309 211.384 546.234 211.308C546.158 211.231 546.051 211.184 545.936 211.177C545.82 211.17 545.707 211.203 545.62 211.27C545.533 211.337 545.479 211.431 545.471 211.532L543.448 236.3C543.444 236.375 543.464 236.449 543.507 236.514C543.55 236.579 543.614 236.631 543.691 236.664L551.542 240.336L549.951 248.722C549.936 248.809 549.955 248.898 550.004 248.974L559.874 264.175C559.911 264.232 559.964 264.28 560.028 264.314C560.092 264.348 560.165 264.367 560.24 264.369Z" fill="#3A5AAB"/>
<path d="M573.338 290.891C573.338 290.891 618.185 313.159 633.316 294.145C636.469 290.196 637.209 286.273 636.435 282.533C649.878 276.565 663.602 274.844 671.157 274.355C673.139 283.47 672.091 293.163 665.996 302.962C639.491 345.561 567.403 300.607 567.403 300.607L573.338 290.891Z" fill="url(#paint42_linear)"/>
<path d="M578.726 319.067L554.244 243.97C554.11 243.553 553.838 243.181 553.463 242.9C553.087 242.62 552.626 242.443 552.136 242.393C547.702 241.939 534.852 240.662 520.017 239.561C502.145 238.233 481.394 237.157 468.992 238.069C468.585 238.097 468.192 238.213 467.848 238.405C467.503 238.598 467.218 238.862 467.016 239.174C466.814 239.486 466.702 239.836 466.691 240.195C466.679 240.554 466.767 240.91 466.948 241.231C473.999 253.767 503.009 304.756 517.533 321.46C517.769 321.733 518.075 321.954 518.425 322.105C518.775 322.256 519.161 322.334 519.551 322.331L576.339 321.867C576.724 321.864 577.104 321.784 577.448 321.631C577.792 321.478 578.091 321.258 578.323 320.987C578.554 320.716 578.71 320.401 578.78 320.068C578.85 319.735 578.831 319.392 578.726 319.067Z" fill="url(#paint43_linear)"/>
<path d="M517.485 233.05L499.739 230.452C499.523 230.421 499.301 230.438 499.095 230.504C498.889 230.57 498.706 230.681 498.563 230.827C498.421 230.973 498.323 231.15 498.281 231.338C498.238 231.527 498.252 231.723 498.32 231.906L500.079 236.594C500.154 236.794 500.291 236.971 500.475 237.105C500.659 237.239 500.882 237.325 501.119 237.353L518.195 239.356C518.4 239.38 518.608 239.36 518.802 239.298C518.995 239.236 519.169 239.134 519.307 238.999C519.446 238.865 519.545 238.703 519.596 238.528C519.648 238.352 519.65 238.168 519.602 237.992L518.516 233.909C518.46 233.692 518.333 233.494 518.149 233.341C517.966 233.188 517.734 233.087 517.485 233.05Z" fill="url(#paint44_linear)"/>
<path d="M530.772 246.248L529.317 239.558C529.246 239.232 529.057 238.934 528.778 238.709C528.498 238.484 528.144 238.345 527.767 238.312L491.927 235.115C491.647 235.09 491.364 235.125 491.103 235.215C490.841 235.306 490.608 235.451 490.423 235.637C490.238 235.823 490.106 236.045 490.039 236.285C489.972 236.525 489.971 236.776 490.037 237.016L492.317 245.353C492.406 245.678 492.612 245.968 492.905 246.181C493.197 246.394 493.56 246.519 493.94 246.536L528.963 248.085C529.229 248.096 529.494 248.053 529.738 247.961C529.983 247.869 530.2 247.729 530.374 247.552C530.549 247.375 530.675 247.166 530.744 246.94C530.813 246.714 530.822 246.478 530.772 246.248Z" fill="url(#paint45_linear)"/>
<path d="M572.815 300.924C572.815 300.924 576.223 288.606 574.848 284.235C573.472 279.864 570.809 274.247 561.926 275.498C553.044 276.749 542.568 280.035 542.568 280.035C542.568 280.035 543.097 285.727 549.845 283.89L545.658 286.735C545.658 286.735 546.257 291.294 551.964 288.866L548.071 292.641C548.071 292.641 550.519 296.385 554.713 293.983C558.907 291.581 560.917 302.399 572.815 300.924Z" fill="url(#paint46_linear)"/>
<path d="M615.553 301.951C619.721 301.951 623.546 301.41 626.456 300.008C626.59 299.942 626.688 299.833 626.73 299.704C626.772 299.575 626.754 299.436 626.681 299.319C626.607 299.201 626.484 299.114 626.337 299.076C626.191 299.037 626.033 299.052 625.898 299.115C613.948 304.869 584.453 295.008 584.157 294.908C584.077 294.885 578.335 293.135 576.295 289.623C576.262 289.561 576.216 289.505 576.158 289.459C576.1 289.413 576.032 289.378 575.958 289.356C575.884 289.334 575.806 289.325 575.728 289.33C575.65 289.335 575.575 289.353 575.505 289.385C575.436 289.416 575.374 289.459 575.324 289.512C575.274 289.564 575.237 289.625 575.215 289.691C575.192 289.757 575.185 289.826 575.194 289.894C575.202 289.962 575.226 290.028 575.264 290.087C577.528 293.97 583.511 295.79 583.754 295.867C584.688 296.18 601.943 301.951 615.553 301.951Z" fill="url(#paint47_linear)"/>
<path d="M631.73 321.366C632.04 321.366 632.297 321.366 632.307 321.089C632.317 320.812 632.064 320.68 631.749 320.663C597.691 319.633 578.304 305.988 578.112 305.849C577.989 305.767 577.834 305.732 577.682 305.75C577.529 305.769 577.39 305.839 577.297 305.947C577.093 306.16 577.13 306.286 577.377 306.463C577.574 306.604 597.267 321.36 631.71 321.36L631.73 321.366Z" fill="url(#paint48_linear)"/>
<path d="M542.138 148.21C542.138 148.21 535.575 169.178 536.605 179.62C537.636 190.063 536.191 197.096 550.164 197.477C564.138 197.859 574.663 190.444 579.194 179.335C579.194 179.335 586.352 162.207 583.104 155.969C579.856 149.731 542.138 148.21 542.138 148.21Z" fill="url(#paint49_linear)"/>
<path d="M597.827 149.384C594.851 147.756 592.916 148.319 591.78 149.139C591.639 149.242 591.467 149.307 591.285 149.325C591.102 149.343 590.918 149.314 590.754 149.241C590.723 148.93 588.465 127.504 555.21 131.267C553.52 131.459 551.804 131.204 550.28 130.536C548.755 129.868 547.492 128.816 546.65 127.514C542.718 121.43 535.25 112.486 529.627 121.225C521.623 133.656 519.238 149.97 541.93 153.35C543.274 153.55 544.629 153.71 545.99 153.838C555.358 155.867 566.028 156.506 569.982 157.382C576.589 158.846 571.541 172.351 571.541 172.351L573.263 172.138L576.938 171.676C577.472 171.61 577.991 172.14 578.035 172.611L578.886 181.837C578.903 182.035 578.996 182.222 579.15 182.367C579.304 182.513 579.509 182.608 579.733 182.638C581.413 182.798 585.77 182.653 592.467 178.335C599.016 174.114 595.875 171.97 593.869 171.151C593.738 171.095 593.624 171.012 593.536 170.91C593.449 170.807 593.39 170.688 593.365 170.562C593.34 170.436 593.35 170.306 593.393 170.184C593.436 170.061 593.512 169.95 593.614 169.858C602.552 161.291 602.999 152.206 597.827 149.384Z" fill="url(#paint50_linear)"/>
<path d="M573.21 174.448C573.21 174.448 574.888 161.37 581.898 164.097C588.908 166.825 580.86 178.644 575.764 179.765L573.21 174.448Z" fill="url(#paint51_linear)"/>
<path d="M536.052 149.384C536.169 149.37 536.275 149.316 536.348 149.235C536.386 149.193 536.415 149.145 536.431 149.094C536.448 149.042 536.453 148.989 536.446 148.936C536.439 148.882 536.42 148.831 536.391 148.784C536.361 148.738 536.321 148.697 536.273 148.664C531.495 145.341 528.868 141.501 528.47 137.247C527.776 129.85 534.117 123.627 534.18 123.565C534.256 123.485 534.293 123.382 534.285 123.277C534.276 123.173 534.223 123.076 534.135 123.005C534.047 122.935 533.931 122.897 533.812 122.899C533.694 122.902 533.58 122.944 533.496 123.018C533.222 123.282 526.825 129.556 527.546 137.307C527.965 141.797 530.699 145.831 535.698 149.301C535.748 149.335 535.805 149.36 535.866 149.375C535.926 149.389 535.99 149.392 536.052 149.384Z" fill="white"/>
<defs>
<linearGradient id="paint0_linear" x1="556.453" y1="484.644" x2="160.508" y2="112.405" gradientUnits="userSpaceOnUse">
<stop offset="0.170984" stop-color="#F4F9FC"/>
<stop offset="0.336069" stop-color="#F4F9FC"/>
<stop offset="1" stop-color="#53D8FF"/>
</linearGradient>
<linearGradient id="paint1_linear" x1="483693" y1="-211054" x2="655730" y2="-95477.6" gradientUnits="userSpaceOnUse">
<stop stop-color="#739AF0"/>
<stop offset="1" stop-color="#F895E7"/>
</linearGradient>
<linearGradient id="paint2_linear" x1="861322" y1="942696" x2="1.51897e+06" y2="704441" gradientUnits="userSpaceOnUse">
<stop stop-color="#739AF0"/>
<stop offset="1" stop-color="#53D8FF"/>
</linearGradient>
<linearGradient id="paint3_linear" x1="402.65" y1="11.9625" x2="531.803" y2="-346.622" gradientUnits="userSpaceOnUse">
<stop stop-color="#2B3582"/>
<stop offset="1" stop-color="#150E42"/>
</linearGradient>
<linearGradient id="paint4_linear" x1="602.737" y1="-3.46691" x2="118.96" y2="658.48" gradientUnits="userSpaceOnUse">
<stop stop-color="#53D8FF"/>
<stop offset="0.671875" stop-color="#739AF0"/>
</linearGradient>
<linearGradient id="paint5_linear" x1="118561" y1="11482.6" x2="67397" y2="37290.5" gradientUnits="userSpaceOnUse">
<stop stop-color="#2B3582"/>
<stop offset="1" stop-color="#150E42"/>
</linearGradient>
<linearGradient id="paint6_linear" x1="301397" y1="104260" x2="310450" y2="147908" gradientUnits="userSpaceOnUse">
<stop stop-color="#2B3582"/>
<stop offset="1" stop-color="#150E42"/>
</linearGradient>
<linearGradient id="paint7_linear" x1="274954" y1="3536.6" x2="278439" y2="-53959.7" gradientUnits="userSpaceOnUse">
<stop stop-color="#2B3582"/>
<stop offset="1" stop-color="#150E42"/>
</linearGradient>
<linearGradient id="paint8_linear" x1="372.088" y1="358.213" x2="383.651" y2="618.895" gradientUnits="userSpaceOnUse">
<stop offset="0.338542" stop-color="#D93C65"/>
<stop offset="0.814705" stop-color="#FC9490"/>
</linearGradient>
<linearGradient id="paint9_linear" x1="234.592" y1="453.735" x2="287.052" y2="453.735" gradientUnits="userSpaceOnUse">
<stop stop-color="#53D8FF"/>
<stop offset="1" stop-color="#3840F7"/>
</linearGradient>
<linearGradient id="paint10_linear" x1="27432.3" y1="176405" x2="34234.3" y2="176405" gradientUnits="userSpaceOnUse">
<stop stop-color="#53D8FF"/>
<stop offset="1" stop-color="#3840F7"/>
</linearGradient>
<linearGradient id="paint11_linear" x1="81738.3" y1="402140" x2="93084.7" y2="402140" gradientUnits="userSpaceOnUse">
<stop stop-color="#53D8FF"/>
<stop offset="1" stop-color="#3840F7"/>
</linearGradient>
<linearGradient id="paint12_linear" x1="51281.1" y1="177607" x2="58083.2" y2="177607" gradientUnits="userSpaceOnUse">
<stop stop-color="#53D8FF"/>
<stop offset="1" stop-color="#3840F7"/>
</linearGradient>
<linearGradient id="paint13_linear" x1="112500" y1="399071" x2="123846" y2="399071" gradientUnits="userSpaceOnUse">
<stop stop-color="#53D8FF"/>
<stop offset="1" stop-color="#3840F7"/>
</linearGradient>
<linearGradient id="paint14_linear" x1="75151.4" y1="176405" x2="81955" y2="176405" gradientUnits="userSpaceOnUse">
<stop stop-color="#53D8FF"/>
<stop offset="1" stop-color="#3840F7"/>
</linearGradient>
<linearGradient id="paint15_linear" x1="38753.8" y1="81556.9" x2="28622.8" y2="87253.3" gradientUnits="userSpaceOnUse">
<stop stop-color="#53D8FF"/>
<stop offset="1" stop-color="#3840F7"/>
</linearGradient>
<linearGradient id="paint16_linear" x1="22101.1" y1="48233.4" x2="19093.4" y2="51109.6" gradientUnits="userSpaceOnUse">
<stop stop-color="#53D8FF"/>
<stop offset="1" stop-color="#3840F7"/>
</linearGradient>
<linearGradient id="paint17_linear" x1="58408.1" y1="78918.6" x2="50059.3" y2="82456.6" gradientUnits="userSpaceOnUse">
<stop stop-color="#53D8FF"/>
<stop offset="1" stop-color="#3840F7"/>
</linearGradient>
<linearGradient id="paint18_linear" x1="34036.6" y1="46205.6" x2="31285.6" y2="48746.6" gradientUnits="userSpaceOnUse">
<stop stop-color="#53D8FF"/>
<stop offset="1" stop-color="#3840F7"/>
</linearGradient>
<linearGradient id="paint19_linear" x1="75902.7" y1="75415.7" x2="69483.2" y2="77453.1" gradientUnits="userSpaceOnUse">
<stop stop-color="#53D8FF"/>
<stop offset="1" stop-color="#3840F7"/>
</linearGradient>
<linearGradient id="paint20_linear" x1="43152.1" y1="44418.5" x2="40620.1" y2="46682.9" gradientUnits="userSpaceOnUse">
<stop stop-color="#53D8FF"/>
<stop offset="1" stop-color="#3840F7"/>
</linearGradient>
<linearGradient id="paint21_linear" x1="34101.2" y1="83095.1" x2="26781" y2="98076.2" gradientUnits="userSpaceOnUse">
<stop stop-color="#53D8FF"/>
<stop offset="1" stop-color="#3840F7"/>
</linearGradient>
<linearGradient id="paint22_linear" x1="54073.5" y1="80321.8" x2="47163.7" y2="93974.6" gradientUnits="userSpaceOnUse">
<stop stop-color="#53D8FF"/>
<stop offset="1" stop-color="#3840F7"/>
</linearGradient>
<linearGradient id="paint23_linear" x1="69536.2" y1="77389.2" x2="62989.5" y2="89916.4" gradientUnits="userSpaceOnUse">
<stop stop-color="#53D8FF"/>
<stop offset="1" stop-color="#3840F7"/>
</linearGradient>
<linearGradient id="paint24_linear" x1="386621" y1="27739.8" x2="386578" y2="16837" gradientUnits="userSpaceOnUse">
<stop stop-color="#53D8FF"/>
<stop offset="1" stop-color="#3840F7"/>
</linearGradient>
<linearGradient id="paint25_linear" x1="20688.8" y1="42151.5" x2="19034.2" y2="56617.4" gradientUnits="userSpaceOnUse">
<stop stop-color="#53D8FF"/>
<stop offset="1" stop-color="#3840F7"/>
</linearGradient>
<linearGradient id="paint26_linear" x1="33905.9" y1="36366.4" x2="29317.6" y2="61577.2" gradientUnits="userSpaceOnUse">
<stop stop-color="#53D8FF"/>
<stop offset="1" stop-color="#3840F7"/>
</linearGradient>
<linearGradient id="paint27_linear" x1="43413.2" y1="39586.2" x2="36375" y2="58988" gradientUnits="userSpaceOnUse">
<stop stop-color="#53D8FF"/>
<stop offset="1" stop-color="#3840F7"/>
</linearGradient>
<linearGradient id="paint28_linear" x1="522125" y1="206655" x2="467221" y2="206655" gradientUnits="userSpaceOnUse">
<stop stop-color="#2B3582"/>
<stop offset="1" stop-color="#150E42"/>
</linearGradient>
<linearGradient id="paint29_linear" x1="418.608" y1="201.654" x2="391.063" y2="270.887" gradientUnits="userSpaceOnUse">
<stop stop-color="#F47960"/>
<stop offset="1" stop-color="#FC9490"/>
</linearGradient>
<linearGradient id="paint30_linear" x1="870.045" y1="242.289" x2="869.206" y2="242.289" gradientUnits="userSpaceOnUse">
<stop stop-color="#2B3582"/>
<stop offset="1" stop-color="#150E42"/>
</linearGradient>
<linearGradient id="paint31_linear" x1="-815.614" y1="252.876" x2="-815.605" y2="252.891" gradientUnits="userSpaceOnUse">
<stop stop-color="#53EAC9"/>
<stop offset="1" stop-color="#45AED8"/>
</linearGradient>
<linearGradient id="paint32_linear" x1="255340" y1="70285.5" x2="268858" y2="105538" gradientUnits="userSpaceOnUse">
<stop stop-color="#2B3582"/>
<stop offset="1" stop-color="#150E42"/>
</linearGradient>
<linearGradient id="paint33_linear" x1="67482.9" y1="38940.3" x2="66402.3" y2="38940.3" gradientUnits="userSpaceOnUse">
<stop stop-color="#F9B776"/>
<stop offset="1" stop-color="#F47960"/>
</linearGradient>
<linearGradient id="paint34_linear" x1="209246" y1="361809" x2="296471" y2="391149" gradientUnits="userSpaceOnUse">
<stop stop-color="#2B3582"/>
<stop offset="1" stop-color="#150E42"/>
</linearGradient>
<linearGradient id="paint35_linear" x1="106840" y1="56582.6" x2="123741" y2="77420.7" gradientUnits="userSpaceOnUse">
<stop stop-color="#2B3582"/>
<stop offset="1" stop-color="#150E42"/>
</linearGradient>
<linearGradient id="paint36_linear" x1="61413.6" y1="50695.8" x2="60608.4" y2="50695.8" gradientUnits="userSpaceOnUse">
<stop stop-color="#F9B776"/>
<stop offset="1" stop-color="#F47960"/>
</linearGradient>
<linearGradient id="paint37_linear" x1="306121" y1="350016" x2="419119" y2="402995" gradientUnits="userSpaceOnUse">
<stop stop-color="#2B3582"/>
<stop offset="1" stop-color="#150E42"/>
</linearGradient>
<linearGradient id="paint38_linear" x1="187014" y1="42244.2" x2="183734" y2="40411.2" gradientUnits="userSpaceOnUse">
<stop stop-color="#FC9490"/>
<stop offset="0.0001" stop-color="#F47960"/>
<stop offset="1" stop-color="#FC9490"/>
</linearGradient>
<linearGradient id="paint39_linear" x1="-339086" y1="410602" x2="-316222" y2="410602" gradientUnits="userSpaceOnUse">
<stop stop-color="#6D89D0"/>
<stop offset="1" stop-color="#6D89D0"/>
</linearGradient>
<linearGradient id="paint40_linear" x1="-89636.1" y1="8740.96" x2="-88003" y2="5032.17" gradientUnits="userSpaceOnUse">
<stop stop-color="#9CFFFB"/>
<stop offset="1" stop-color="#9BFFFA"/>
</linearGradient>
<linearGradient id="paint41_linear" x1="159991" y1="55661.1" x2="158282" y2="54696.3" gradientUnits="userSpaceOnUse">
<stop stop-color="#6D89D0"/>
<stop offset="0.59375" stop-color="#3A5AAB"/>
</linearGradient>
<linearGradient id="paint42_linear" x1="-491597" y1="65886.8" x2="-446433" y2="65886.8" gradientUnits="userSpaceOnUse">
<stop stop-color="#9BFFFA"/>
<stop offset="0.963542" stop-color="#6D89D0"/>
</linearGradient>
<linearGradient id="paint43_linear" x1="463317" y1="92520.2" x2="447808" y2="178168" gradientUnits="userSpaceOnUse">
<stop offset="0.109375" stop-color="#D9E9FE"/>
<stop offset="1" stop-color="#D93C65"/>
</linearGradient>
<linearGradient id="paint44_linear" x1="84375.4" y1="8578.82" x2="84571.9" y2="10644.3" gradientUnits="userSpaceOnUse">
<stop stop-color="#53D8FF"/>
<stop offset="1" stop-color="#3840F7"/>
</linearGradient>
<linearGradient id="paint45_linear" x1="163043" y1="13578.5" x2="163145" y2="15507.4" gradientUnits="userSpaceOnUse">
<stop stop-color="#53D8FF"/>
<stop offset="1" stop-color="#3840F7"/>
</linearGradient>
<linearGradient id="paint46_linear" x1="139289" y1="35088.1" x2="134906" y2="35088.1" gradientUnits="userSpaceOnUse">
<stop stop-color="#F9B776"/>
<stop offset="1" stop-color="#FC9490"/>
</linearGradient>
<linearGradient id="paint47_linear" x1="231782" y1="17801.4" x2="220823" y2="17801.4" gradientUnits="userSpaceOnUse">
<stop stop-color="#53EAC9"/>
<stop offset="1" stop-color="#4463B3"/>
</linearGradient>
<linearGradient id="paint48_linear" x1="249208" y1="23289.2" x2="236672" y2="23289.2" gradientUnits="userSpaceOnUse">
<stop stop-color="#45AED8"/>
<stop offset="1" stop-color="#3A5AAB"/>
</linearGradient>
<linearGradient id="paint49_linear" x1="394964" y1="18217.6" x2="407642" y2="24905.7" gradientUnits="userSpaceOnUse">
<stop stop-color="#FC9490"/>
<stop offset="1" stop-color="#F9B776"/>
</linearGradient>
<linearGradient id="paint50_linear" x1="326572" y1="31424" x2="358564" y2="68026.9" gradientUnits="userSpaceOnUse">
<stop stop-color="#2B3582"/>
<stop offset="1" stop-color="#150E42"/>
</linearGradient>
<linearGradient id="paint51_linear" x1="94725.1" y1="9604.07" x2="98258.3" y2="10875.5" gradientUnits="userSpaceOnUse">
<stop stop-color="#FC9490"/>
<stop offset="1" stop-color="#F47960"/>
</linearGradient>
</defs>
</svg>
